<?xml version="1.0" encoding="UTF-8" standalone="no"?>
<svg
   width="456"
   height="456"
   viewBox="0 0 456 456"
   version="1.1"
   xml:space="preserve"
   style="fill-rule:evenodd;clip-rule:evenodd;stroke-linejoin:round;stroke-miterlimit:2;"
   id="svg4"
   sodipodi:docname="appiconfg.svg"
   inkscape:export-filename="appiconfg.svg"
   inkscape:export-xdpi="96"
   inkscape:export-ydpi="96"
   inkscape:version="1.3.2 (091e20e, 2023-11-25, custom)"
   xmlns:inkscape="http://www.inkscape.org/namespaces/inkscape"
   xmlns:sodipodi="http://sodipodi.sourceforge.net/DTD/sodipodi-0.dtd"
   xmlns="http://www.w3.org/2000/svg"
   xmlns:svg="http://www.w3.org/2000/svg"><defs
   id="defs4"><filter
     id="mask-powermask-path-effect6_inverse"
     inkscape:label="filtermask-powermask-path-effect6"
     style="color-interpolation-filters:sRGB"
     height="100"
     width="100"
     x="-50"
     y="-50"><feColorMatrix
       id="mask-powermask-path-effect6_primitive1"
       values="1"
       type="saturate"
       result="fbSourceGraphic" /><feColorMatrix
       id="mask-powermask-path-effect6_primitive2"
       values="-1 0 0 0 1 0 -1 0 0 1 0 0 -1 0 1 0 0 0 1 0 "
       in="fbSourceGraphic" /></filter><clipPath
     clipPathUnits="userSpaceOnUse"
     id="clipPath10"><path
       style="clip-rule:evenodd;fill:#ffffff;fill-opacity:1;fill-rule:evenodd;stroke:none;stroke-width:15;stroke-linejoin:round;stroke-miterlimit:2;stroke-dasharray:none;stroke-opacity:1;paint-order:markers fill stroke"
       d="m 126.91393,-364.08432 80.11441,96.77186 82.49405,-110.25647 -168.16095,-3.17285 z"
       id="path10" /></clipPath><clipPath
     clipPathUnits="userSpaceOnUse"
     id="clipPath11"><path
       style="display:inline;fill:#ffffff;fill-opacity:1;stroke:none;stroke-width:15;stroke-dasharray:none;stroke-opacity:1;paint-order:markers fill stroke"
       d="m 126.91393,-364.08432 80.11441,96.77186 82.49405,-110.25647 -168.16095,-3.17285 z"
       id="path11" /></clipPath></defs><sodipodi:namedview
   id="namedview4"
   pagecolor="#ffffff"
   bordercolor="#000000"
   borderopacity="0.25"
   inkscape:showpageshadow="2"
   inkscape:pageopacity="0.0"
   inkscape:pagecheckerboard="0"
   inkscape:deskcolor="#d1d1d1"
   inkscape:zoom="0.63034848"
   inkscape:cx="83.287264"
   inkscape:cy="94.392232"
   inkscape:window-width="1920"
   inkscape:window-height="1009"
   inkscape:window-x="-8"
   inkscape:window-y="-8"
   inkscape:window-maximized="1"
   inkscape:current-layer="svg4" />
    <rect
   style="clip-rule:evenodd;display:none;fill:#803300;fill-rule:evenodd;stroke-width:0.582047;stroke-linejoin:round;stroke-miterlimit:2;paint-order:markers fill stroke"
   id="rect4"
   width="484.60516"
   height="468.90036"
   x="-7.291513"
   y="-3.3653138"
   sodipodi:insensitive="true" />
    
    
    
<g
   id="g6"
   transform="matrix(7.3429874,0,0,7.3429874,-320.82276,-125.59143)"><ellipse
     style="opacity:0.1;fill:#ff00ff;stroke:#000000;stroke-width:1;stroke-dasharray:none;stroke-opacity:1;paint-order:markers fill stroke"
     id="path6"
     cx="74.797981"
     cy="48.449715"
     rx="29.773062"
     ry="29.179426" /><path
     d="m 85.9,45.8 9,-9 C 70.1,12 29.9,12 5.1,36.8 l 9,9 C 33.9,26 66.1,26 85.9,45.8 Z"
     id="path3"
     transform="matrix(0.28085566,0,0,0.28085566,60.965485,22.276999)"
     style="fill:#ffffff" /><path
     d="m 23.1,54.8 9,9 c 9.9,-9.9 26,-9.9 35.9,0 l 9,-9 C 62.1,39.9 37.9,39.9 23.1,54.8 Z"
     id="path2"
     transform="matrix(0.28085566,0,0,0.28085566,60.965485,22.276999)"
     style="fill:#ffffff" /><path
     id="rect2"
     style="fill:#ffffff;stroke:none;stroke-width:2.52787;stroke-dasharray:none;stroke-opacity:1;paint-order:markers fill stroke"
     d="m 69.142033,43.25214 c -1.764139,0 -3.184302,1.420163 -3.184302,3.184302 v 18.469157 c 0,1.764139 1.420163,3.184302 3.184302,3.184302 h 11.623063 c 1.764139,0 3.184302,-1.420163 3.184302,-3.184302 V 46.436442 c 0,-1.764139 -1.420163,-3.184302 -3.184302,-3.184302 z m 5.838403,5.406905 a 3.7444649,3.7444649 0 0 1 3.744474,3.744475 3.7444649,3.7444649 0 0 1 -3.744474,3.744474 3.7444649,3.7444649 0 0 1 -3.744474,-3.744474 3.7444649,3.7444649 0 0 1 3.744474,-3.744475 z" /></g></svg>
