<?xml version="1.0" encoding="UTF-8" standalone="no"?>
<svg
   width="456"
   height="456"
   viewBox="0 0 456 456"
   version="1.1"
   xml:space="preserve"
   style="fill-rule:evenodd;clip-rule:evenodd;stroke-linejoin:round;stroke-miterlimit:2;"
   id="svg4"
   sodipodi:docname="splash.svg"
   inkscape:export-filename="splash.svg"
   inkscape:export-xdpi="96"
   inkscape:export-ydpi="96"
   inkscape:version="1.3.2 (091e20e, 2023-11-25, custom)"
   xmlns:inkscape="http://www.inkscape.org/namespaces/inkscape"
   xmlns:sodipodi="http://sodipodi.sourceforge.net/DTD/sodipodi-0.dtd"
   xmlns="http://www.w3.org/2000/svg"
   xmlns:svg="http://www.w3.org/2000/svg"><defs
   id="defs4" /><sodipodi:namedview
   id="namedview4"
   pagecolor="#ffffff"
   bordercolor="#000000"
   borderopacity="0.25"
   inkscape:showpageshadow="2"
   inkscape:pageopacity="0.0"
   inkscape:pagecheckerboard="0"
   inkscape:deskcolor="#d1d1d1"
   inkscape:export-bgcolor="#ffffff00"
   inkscape:zoom="1.260697"
   inkscape:cx="187.19804"
   inkscape:cy="208.21816"
   inkscape:window-width="1920"
   inkscape:window-height="1009"
   inkscape:window-x="1912"
   inkscape:window-y="-8"
   inkscape:window-maximized="1"
   inkscape:current-layer="svg4" />
    <rect
   style="clip-rule:evenodd;display:none;fill:#544e52;fill-rule:evenodd;stroke-width:0.582047;stroke-linejoin:round;stroke-miterlimit:2;paint-order:markers fill stroke"
   id="rect4"
   width="521.06274"
   height="486.28781"
   x="-19.07011"
   y="-12.900369"
   sodipodi:insensitive="true" />
    
    
    
<g
   id="g26"
   inkscape:label="text"><path
     d="m 68.290935,274.7961 q 0,1.83594 -0.117188,2.13542 -0.195313,0.58594 -2.109377,3.42449 -1.966149,2.90365 -2.343753,3.0599 -0.182292,0.0781 -1.093752,0.0781 -0.872397,0 -1.145835,-0.0781 -0.364583,-0.11719 -2.382815,-2.94272 -1.966148,-2.74739 -2.200524,-3.34635 -0.3125,-0.82032 -0.3125,-2.53907 0,-0.53385 0.02604,-1.60156 0.02604,-1.06771 0.02604,-1.60157 0,-0.28646 0.286459,-0.28646 0.429688,0 1.276043,0.0391 0.859376,0.0391 1.289064,0.0391 0.234376,0 0.234376,0.26042 0,0.41666 -0.05208,1.23698 -0.05208,0.80729 -0.05208,1.22396 0,1.19791 0.130208,2.1875 0.06511,0.49479 1.315106,2.42188 1.263023,1.92708 1.562502,1.92708 0.286459,0 1.419273,-1.88802 1.119793,-1.84896 1.197918,-2.33073 0.104167,-0.65105 0.104167,-2.23959 0,-0.42969 -0.09115,-1.28906 -0.07813,-0.85938 -0.07813,-1.28907 0,-0.19531 0.195313,-0.19531 0.429688,0 1.263022,-0.0391 0.833334,-0.0521 1.250002,-0.0521 0.403646,0 0.403646,3.6849 z"
     id="path25"
     style="fill-rule:evenodd;clip-rule:evenodd;stroke-linejoin:round;stroke-miterlimit:2;font-size:26.6667px;line-height:1;font-family:'Berlin Sans FB';-inkscape-font-specification:'Berlin Sans FB';fill:#ffffff;stroke-width:0.582047;paint-order:markers fill stroke" /><path
     d="m 82.340432,277.07475 q 0,2.72136 -1.783857,4.64845 -1.822919,1.99219 -4.518235,1.99219 -2.708336,0 -4.531255,-1.97917 -1.783857,-1.91407 -1.783857,-4.63543 0,-2.72135 1.783857,-4.63542 1.835939,-1.95313 4.531255,-1.95313 2.682295,0 4.505214,1.95313 1.796878,1.90105 1.796878,4.60938 z m -2.7474,0.026 q 0,-1.58854 -0.976563,-2.70833 -1.015627,-1.1849 -2.578129,-1.1849 -1.562502,0 -2.591149,1.17188 -0.976564,1.13281 -0.976564,2.72135 0,1.56251 0.989585,2.70834 1.041668,1.21094 2.578128,1.21094 1.549481,0 2.578129,-1.21094 0.976563,-1.14583 0.976563,-2.70834 z m 16.054707,6.0547 q 0,0.28646 -0.260417,0.28646 -0.429688,0 -1.289064,-0.013 -0.846355,-0.013 -1.276043,-0.013 -0.234376,0 -0.234376,-0.37761 0,-0.63802 0.03906,-1.9401 0.03906,-1.30209 0.03906,-1.95313 0,-0.52084 -0.01302,-1.54948 -0.01302,-1.04167 -0.01302,-1.5625 0,-1.48438 -0.429688,-2.09636 -0.520834,-0.72917 -1.927086,-0.72917 -0.651043,0 -1.809898,0.72917 -1.22396,0.76823 -1.22396,1.36719 v 7.81251 q 0,0.32552 -0.247396,0.32552 -0.416667,0 -1.250002,-0.013 -0.833334,-0.013 -1.250001,-0.013 -0.273438,0 -0.273438,-0.29948 0,-1.02865 0.02604,-3.08594 0.03906,-2.0573 0.03906,-3.09897 0,-2.77344 -0.585938,-5.11719 -0.03906,-0.11719 -0.03906,-0.16927 0,-0.13021 0.169271,-0.18229 0.09115,-0.013 1.484377,-0.23438 1.406252,-0.23437 1.471356,-0.23437 0.07813,0 0.104167,0.20833 0.0651,0.80729 0.29948,1.62761 0.677084,-0.53386 1.783856,-1.32813 1.367189,-0.83334 2.643232,-0.83334 2.44792,0 3.346359,1.41928 0.664063,1.04167 0.664063,3.3724 0,0.40364 -0.02604,1.23698 -0.01302,0.83333 -0.01302,1.25 0,0.8724 0.02604,2.60417 0.02604,1.73177 0.02604,2.60417 z m 23.229201,-5.36459 q 0,2.26563 -1.36719,3.89323 -1.44532,1.70574 -3.67188,1.70574 -0.83334,0 -2.51303,-0.0391 -1.66666,-0.0391 -2.5,-0.0391 -0.61198,0 -1.84896,0.0521 -1.22396,0.0521 -1.83594,0.0521 -0.32552,0 -0.32552,-0.29948 0,-1.4323 0.13021,-4.29688 0.14323,-2.87761 0.14323,-4.3099 0,-1.51042 -0.14323,-4.53126 -0.13021,-3.03386 -0.13021,-4.54428 0,-0.28646 0.32552,-0.28646 1.15886,0 3.48959,0.013 2.33073,0.013 3.50261,0.013 2.73438,0 4.36198,1.01562 1.97917,1.23698 1.97917,3.84115 0,0.89844 -0.52083,1.87501 -0.52084,0.96354 -1.26303,1.45833 -0.3776,0.2474 -0.3776,0.32552 0,0.0781 0.3776,0.28646 0.98959,0.54688 1.58855,1.61459 0.59896,1.05469 0.59896,2.20052 z m -3.65886,-7.47397 q 0,-1.83594 -1.64063,-2.47396 -0.98958,-0.3776 -3.24219,-0.3776 -2.1875,0 -2.1875,0.32552 0,0.42969 -0.0391,1.28906 -0.0391,0.85938 -0.0391,1.30209 0,0.29948 0.013,0.92448 0.013,0.625 0.013,0.9375 0,0.3776 2.94272,0.3776 4.17969,0 4.17969,-2.30469 z m 0.35156,7.34376 q 0,-1.58854 -1.41927,-2.14844 -0.89844,-0.36458 -2.79948,-0.36458 -3.28126,0 -3.28126,0.35156 v 2.13542 q 0,0.46875 0.026,1.43229 0.026,0.96355 0.026,1.44532 0,0.13021 0.83333,0.19531 0.83333,0.0651 2.47396,0.0651 2.0573,0 2.95573,-0.53385 1.1849,-0.70313 1.1849,-2.57813 z m 17.30471,-0.58594 q 0,2.72136 -1.78385,4.64845 -1.82292,1.99219 -4.51824,1.99219 -2.70834,0 -4.53125,-1.97917 -1.78386,-1.91407 -1.78386,-4.63543 0,-2.72135 1.78386,-4.63542 1.83594,-1.95313 4.53125,-1.95313 2.6823,0 4.50522,1.95313 1.79687,1.90105 1.79687,4.60938 z m -2.7474,0.026 q 0,-1.58854 -0.97656,-2.70833 -1.01563,-1.1849 -2.57813,-1.1849 -1.5625,0 -2.59115,1.17188 -0.97656,1.13281 -0.97656,2.72135 0,1.56251 0.98958,2.70834 1.04167,1.21094 2.57813,1.21094 1.54948,0 2.57813,-1.21094 0.97656,-1.14583 0.97656,-2.70834 z m 17.50002,0.026 q 0,2.57812 -1.60156,4.49219 -1.70573,2.03125 -4.2448,2.03125 -1.69271,0 -2.98177,-0.85937 -0.52084,-0.44271 -1.04167,-0.8724 -0.14323,0.0391 -0.19531,0.78125 -0.0391,0.74219 -0.20834,0.74219 h -2.7474 q -0.15625,0 -0.15625,-0.16927 0,0.013 0.026,-0.23438 0.20833,-2.08333 0.20833,-7.96876 0,-2.40886 -0.20833,-7.07032 -0.13021,-2.96875 -0.13021,-2.60417 0,-0.33854 0.33854,-0.3776 0.46875,-0.013 1.39323,-0.0521 0.18229,-0.013 0.74219,-0.0911 0.46875,-0.0781 0.75521,-0.0781 0.20833,0 0.20833,0.29948 0,0.44271 -0.0651,1.35417 -0.0651,0.91146 -0.0651,1.36719 0,0.67708 -0.0651,2.04427 -0.0521,1.35417 -0.0521,2.03125 0,0.4948 0.18229,0.4948 0.0911,0 0.19531,-0.14323 1.43229,-1.78386 3.78907,-1.78386 2.69531,0 4.36198,2.01823 1.5625,1.90105 1.5625,4.64845 z m -2.94271,-0.11719 q 0,-1.54948 -0.97656,-2.73438 -1.04167,-1.26302 -2.56511,-1.26302 -1.5625,0 -2.60417,1.23698 -1.0026,1.17188 -1.0026,2.76042 0,1.61458 1.0026,2.78646 1.04167,1.22396 2.63021,1.22396 1.53646,0 2.56511,-1.26302 0.95052,-1.17188 0.95052,-2.7474 z m 17.72138,0.11719 q 0,2.57812 -1.60157,4.49219 -1.70573,2.03125 -4.24479,2.03125 -1.69271,0 -2.98178,-0.85937 -0.52083,-0.44271 -1.04167,-0.8724 -0.14323,0.0391 -0.19531,0.78125 -0.0391,0.74219 -0.20833,0.74219 h -2.7474 q -0.15625,0 -0.15625,-0.16927 0,0.013 0.026,-0.23438 0.20833,-2.08333 0.20833,-7.96876 0,-2.40886 -0.20833,-7.07032 -0.13021,-2.96875 -0.13021,-2.60417 0,-0.33854 0.33854,-0.3776 0.46875,-0.013 1.39323,-0.0521 0.1823,-0.013 0.74219,-0.0911 0.46875,-0.0781 0.75521,-0.0781 0.20833,0 0.20833,0.29948 0,0.44271 -0.0651,1.35417 -0.0651,0.91146 -0.0651,1.36719 0,0.67708 -0.0651,2.04427 -0.0521,1.35417 -0.0521,2.03125 0,0.4948 0.18229,0.4948 0.0911,0 0.19531,-0.14323 1.4323,-1.78386 3.78907,-1.78386 2.69532,0 4.36199,2.01823 1.5625,1.90105 1.5625,4.64845 z m -2.94271,-0.11719 q 0,-1.54948 -0.97657,-2.73438 -1.04167,-1.26302 -2.56511,-1.26302 -1.5625,0 -2.60417,1.23698 -1.0026,1.17188 -1.0026,2.76042 0,1.61458 1.0026,2.78646 1.04167,1.22396 2.63022,1.22396 1.53646,0 2.5651,-1.26302 0.95053,-1.17188 0.95053,-2.7474 z m 15.76824,-2.65625 q 0,2.20052 -0.13021,2.65625 -0.16927,0.58594 -3.22917,5.11719 -3.04687,4.51824 -3.61979,5.05209 -0.52084,0.46875 -3.35938,0.46875 -0.33854,0 -0.44271,-0.0781 -0.0911,-0.0651 -0.44271,-0.9375 -0.33854,-0.8724 -0.33854,-1.04167 0,-0.28646 0.6901,-0.28646 1.45834,0 2.14844,-0.41667 0.23438,-0.14323 0.70313,-0.89844 0.48177,-0.7552 0.48177,-1.01562 0,-0.35156 -1.88802,-2.7474 -1.99219,-2.53907 -2.22657,-3.21615 -0.18229,-0.53386 -0.18229,-2.55209 0,-0.49479 0.013,-1.48437 0.013,-1.00261 0.013,-1.51042 0,-0.28646 0.3125,-0.28646 0.41667,0 1.22396,0.0521 0.82032,0.0521 1.23698,0.0521 0.20834,0 0.20834,0.27344 0,0.36459 -0.0391,1.09375 -0.0391,0.72917 -0.0391,1.09376 0,1.58854 0.10417,2.36979 0.0781,0.49479 1.41927,2.46094 1.34115,1.96615 1.65365,1.96615 0.22135,0 1.40625,-1.92709 1.1849,-1.9401 1.26302,-2.39583 0.10417,-0.65105 0.10417,-2.3698 0,-0.3776 -0.0781,-1.10677 -0.0781,-0.74219 -0.0781,-1.10677 0,-0.32552 0.20833,-0.32552 0.41667,0 1.25001,-0.0521 0.84635,-0.0651 1.26302,-0.0651 0.39062,0 0.39062,3.16407 z m 5.33855,5.96354 q 0,1.32813 -0.45573,2.35678 -0.28646,0.65104 -1.5625,2.05729 -1.36719,1.53646 -1.875,1.53646 -0.11719,0 -0.625,-0.59896 -0.50782,-0.59896 -0.50782,-0.75521 0,0.026 0.67709,-0.91145 0.6901,-0.92449 0.74219,-1.54949 0,0.0912 0,-1.36719 0,-0.50781 1.41927,-0.87239 1.13281,-0.28646 1.90104,-0.28646 0.28646,0 0.28646,0.39062 z m 27.12243,2.77345 q 0,0.32552 -0.32552,0.32552 -0.23437,0 -0.71614,-0.0391 -0.46876,-0.0391 -0.70313,-0.0391 -0.23438,0 -0.71615,0.0391 -0.48177,0.0391 -0.71614,0.0391 -0.32553,0 -0.32553,-0.42969 0,-1.65365 0.10417,-4.96094 0.10417,-3.3073 0.10417,-4.96095 0,-0.24739 -0.10417,-0.24739 -0.11719,0 -0.18229,0.14322 -0.66406,1.41928 -3.13803,7.57814 -0.40364,1.1849 -1.15885,2.95573 -0.0911,0.16927 -0.9375,0.16927 -1.22396,0 -1.35417,-0.22135 -0.44271,-1.05469 -1.26302,-2.95573 -1.08073,-2.57813 -3.32032,-7.68231 -0.0391,-0.0911 -0.16927,-0.18229 -0.10417,0.0781 -0.10417,0.28646 0,1.67969 0.0521,5.03907 0.0651,3.35938 0.0651,5.03907 0,0.42969 -0.32552,0.42969 -0.22136,0 -0.67709,-0.0391 -0.45572,-0.0391 -0.67708,-0.0391 -0.23437,0 -0.70313,0.0391 -0.45572,0.0391 -0.6901,0.0391 -0.32552,0 -0.32552,-0.2474 0,-1.44531 0.13021,-4.32292 0.14323,-2.89063 0.14323,-4.33594 0,-1.4974 -0.14323,-4.4922 -0.13021,-3.00781 -0.13021,-4.50521 0,-0.2474 0.29948,-0.28646 1.77083,-0.23438 2.66927,-0.23438 0.13021,0 0.36459,0.53386 3.15104,6.92709 5.41667,12.36981 0.53385,1.27604 0.63802,1.27604 0.13021,0 0.5599,-1.04167 1.77083,-4.21875 4.90886,-12.52606 0.19531,-0.50781 0.42969,-0.50781 0.44271,0 1.32812,0.0521 0.89844,0.0521 1.34115,0.0521 0.32552,0 0.32552,0.3125 0,1.4974 -0.10417,4.50521 -0.0911,2.9948 -0.0911,4.4922 0,1.43229 0.10417,4.29688 0.11718,2.86458 0.11718,4.28386 z m 15.39065,-11.45835 q 0,0.0521 -0.0391,0.23437 -0.50781,2.98178 -0.50781,5.14324 0,0.13021 0.32552,5.84636 l 0.013,0.18229 q 0.013,0.37761 -0.35156,0.37761 -0.35156,0 -1.08073,0.0781 -0.71615,0.0911 -1.06771,0.0911 -0.2474,0 -0.3776,-0.91146 -0.13021,-0.91146 -0.2474,-0.91146 -0.0781,0 -0.70313,0.50781 -0.76823,0.625 -1.43229,0.95052 -1.02865,0.52084 -2.05729,0.52084 -2.52605,0 -4.25782,-2.01823 -1.64063,-1.92709 -1.64063,-4.4922 0,-2.89063 1.65365,-4.77865 1.73177,-1.96615 4.5573,-1.96615 1.99219,0 3.47656,1.38021 0.22136,0.26042 0.69011,0.75521 0.0391,0.0391 0.0781,0.0391 0.0781,0 0.22136,-0.82031 0.14323,-0.82031 0.36458,-0.82031 0.35156,0 1.31511,0.19531 1.06771,0.23438 1.06771,0.41667 z m -3.32032,5.44271 q 0,-1.60156 -0.95052,-2.7474 -1.00261,-1.23698 -2.56511,-1.23698 -1.5625,0 -2.60417,1.22396 -1.0026,1.17188 -1.0026,2.76042 0,1.57553 1.0026,2.73438 1.04167,1.21094 2.60417,1.21094 1.52344,0 2.55209,-1.23698 0.96354,-1.15886 0.96354,-2.70834 z m 16.80992,5.88543 q 0,0.48177 -0.27343,0.48177 -0.40365,0 -1.22396,-0.013 -0.82032,-0.013 -1.22396,-0.013 -0.32553,0 -0.32553,-0.42969 0,-0.625 0.0391,-1.88802 0.0521,-1.26303 0.0521,-1.90105 0,-0.59896 -0.0521,-1.8099 -0.0391,-1.22396 -0.0391,-1.83594 0,-2.34375 -2.21354,-2.34375 -0.71615,0 -1.875,0.71615 -1.23698,0.76823 -1.23698,1.40625 v 7.73438 q 0,0.37761 -0.27344,0.37761 -0.40365,0 -1.21094,-0.013 -0.80729,-0.013 -1.21094,-0.013 -0.29948,0 -0.29948,-0.35157 v -6.28907 q 0,-1.53646 -0.16927,-6.53646 -0.026,-1.54948 -0.22135,-4.58334 -0.026,-0.15625 -0.026,-0.20834 0,-0.22135 0.15625,-0.27343 0.22136,-0.0781 1.47136,-0.0781 0.27344,0 0.82031,-0.0911 0.54688,-0.10417 0.79428,-0.10417 0.16927,0 0.16927,0.24739 0,1.22396 -0.10417,3.68491 -0.0911,2.44791 -0.0911,3.67187 0,0.29948 0.10417,0.31251 0.66406,-0.5599 1.71875,-1.35417 1.27605,-0.79428 2.69532,-0.79428 2.44792,0 3.3724,1.45834 0.66406,1.06771 0.66406,3.38542 0,0.40365 -0.026,1.25 -0.013,0.83334 -0.013,1.23698 0,0.83334 0.026,2.48699 0.026,1.65364 0.026,2.47396 z m 5.88543,-15.11721 q 0,1.60157 -1.78386,1.60157 -1.8099,0 -1.8099,-1.60157 0,-0.71615 0.5599,-1.1849 0.52083,-0.44271 1.25,-0.44271 0.72917,0 1.25,0.45573 0.53386,0.45573 0.53386,1.17188 z m -0.0911,3.52865 q 0,1.00261 -0.13021,3.03386 -0.11719,2.01823 -0.11719,3.03386 0,0.95052 0.0391,2.85156 0.0391,1.88803 0.0391,2.82553 0,0.27344 -0.23438,0.27344 h -2.53906 q -0.27344,0 -0.27344,-0.53386 0,-0.89844 0.0391,-2.69532 0.0521,-1.80989 0.0521,-2.72135 0,-1.01563 -0.15625,-3.04688 -0.14323,-2.03125 -0.14323,-3.04688 0,-0.22136 0.27343,-0.22136 0.23438,0 0.71615,0.0651 0.49479,0.0651 0.74219,0.0651 0.2474,0 0.72917,-0.0651 0.49479,-0.0651 0.74219,-0.0651 0.22135,0 0.22135,0.2474 z m 10.02606,-0.18229 q 0,1.43229 -0.19532,2.60417 -0.0391,0.29948 -0.26041,0.29948 -0.27344,0 -0.83334,-0.0521 -0.54687,-0.0651 -0.83333,-0.0651 -1.64063,0 -2.09636,0.92448 -0.27344,0.5599 -0.27344,2.33073 v 1.4323 q 0,0.72916 0.0521,2.21354 0.0651,1.48438 0.0651,2.21355 0,0.35156 -0.29948,0.35156 -0.40364,0 -1.22396,-0.013 -0.82031,-0.013 -1.22396,-0.013 -0.29948,0 -0.29948,-0.32552 0,-1.05469 0.026,-3.17709 0.0391,-2.1224 0.0391,-3.19011 0,-3.21615 -0.59896,-5.16928 -0.026,-0.10416 -0.026,-0.15625 0,-0.15625 0.16927,-0.22135 0.48177,-0.0521 1.35417,-0.15625 1.40625,-0.26042 1.30208,-0.26042 0.20833,0 0.27344,0.76823 0.0651,0.76823 0.23437,0.76823 0.026,0 0.0651,-0.026 0.53385,-0.33854 1.06771,-0.67708 0.58594,-0.35157 1.19792,-0.52084 0.50781,-0.15625 1.30208,-0.15625 1.01563,0 1.01563,0.27344 z m 5.03906,9.12761 q 0,1.32813 -0.45573,2.35678 -0.28645,0.65104 -1.5625,2.05729 -1.36719,1.53646 -1.875,1.53646 -0.11719,0 -0.625,-0.59896 -0.50781,-0.59896 -0.50781,-0.75521 0,0.026 0.67708,-0.91145 0.69011,-0.92449 0.74219,-1.54949 0,0.0912 0,-1.36719 0,-0.50781 1.41927,-0.87239 1.13282,-0.28646 1.90105,-0.28646 0.28645,0 0.28645,0.39062 z m 22.89065,2.9948 q 0,0.10417 -0.20833,0.10417 -0.2474,0 -0.75521,-0.0391 -0.50781,-0.0391 -0.75521,-0.0391 -0.27344,0 -0.82031,0.0391 -0.53386,0.0391 -0.8073,0.0391 -0.29947,0 -0.45573,-0.32552 -0.41666,-0.88542 -2.36979,-5.48178 -0.19531,-0.46875 -0.95052,-0.57292 -0.16927,-0.013 -1.1849,-0.013 -1.79688,0 -2.13542,0.0521 -0.27344,0.0391 -0.27344,0.66407 0,0.91146 0.0781,2.73437 0.0911,1.8099 0.0911,2.70834 0,0.27344 -0.26041,0.27344 -0.26042,0 -0.79427,-0.0521 -0.52084,-0.0651 -0.79428,-0.0651 -0.22135,0 -0.67708,0.0391 -0.45573,0.0391 -0.67708,0.0391 -0.32553,0 -0.32553,-0.29948 0,-1.44532 0.13021,-4.33595 0.14323,-2.90365 0.14323,-4.34896 0,-4.11459 -0.29948,-8.77605 l -0.013,-0.20834 q -0.013,-0.26041 0.54688,-0.26041 1.11979,0 3.34636,-0.0521 2.23958,-0.0651 3.34635,-0.0651 2.89063,0 4.63543,1.38021 1.92708,1.52344 1.92708,4.32292 0,1.92709 -0.52083,3.03386 -0.54688,1.17188 -2.03125,2.22657 -0.2474,0.16927 -0.2474,0.32552 0,0.18229 1.54948,3.46354 1.5625,3.28126 1.5625,3.48959 z m -3.56771,-11.80991 q 0,-2.35677 -1.35417,-3.15105 -1.0026,-0.58593 -3.60677,-0.58593 -2.10938,0 -2.14844,0.33854 -0.0911,0.70312 -0.0911,3.76302 v 2.48699 q 0.0391,0.026 0.16927,0.0521 0.23438,0.026 0.76823,0.0651 1.23698,0.0651 2.66928,0.0651 3.59375,0 3.59375,-3.03386 z m 17.1094,5.57292 q 0,2.72136 -1.78386,4.64845 -1.82292,1.99219 -4.51823,1.99219 -2.70834,0 -4.53126,-1.97917 -1.78386,-1.91407 -1.78386,-4.63543 0,-2.72135 1.78386,-4.63542 1.83594,-1.95313 4.53126,-1.95313 2.68229,0 4.50521,1.95313 1.79688,1.90105 1.79688,4.60938 z m -2.7474,0.026 q 0,-1.58854 -0.97657,-2.70833 -1.01562,-1.1849 -2.57812,-1.1849 -1.56251,0 -2.59115,1.17188 -0.97657,1.13281 -0.97657,2.72135 0,1.56251 0.98959,2.70834 1.04167,1.21094 2.57813,1.21094 1.54948,0 2.57812,-1.21094 0.97657,-1.14583 0.97657,-2.70834 z m 17.50002,0.026 q 0,2.57812 -1.60157,4.49219 -1.70573,2.03125 -4.24479,2.03125 -1.69271,0 -2.98178,-0.85937 -0.52083,-0.44271 -1.04167,-0.8724 -0.14323,0.0391 -0.19531,0.78125 -0.0391,0.74219 -0.20833,0.74219 h -2.7474 q -0.15625,0 -0.15625,-0.16927 0,0.013 0.026,-0.23438 0.20833,-2.08333 0.20833,-7.96876 0,-2.40886 -0.20833,-7.07032 -0.13021,-2.96875 -0.13021,-2.60417 0,-0.33854 0.33854,-0.3776 0.46875,-0.013 1.39323,-0.0521 0.1823,-0.013 0.74219,-0.0911 0.46875,-0.0781 0.75521,-0.0781 0.20834,0 0.20834,0.29948 0,0.44271 -0.0651,1.35417 -0.0651,0.91146 -0.0651,1.36719 0,0.67708 -0.0651,2.04427 -0.0521,1.35417 -0.0521,2.03125 0,0.4948 0.18229,0.4948 0.0911,0 0.19531,-0.14323 1.4323,-1.78386 3.78907,-1.78386 2.69532,0 4.36199,2.01823 1.5625,1.90105 1.5625,4.64845 z m -2.94271,-0.11719 q 0,-1.54948 -0.97657,-2.73438 -1.04167,-1.26302 -2.56511,-1.26302 -1.5625,0 -2.60417,1.23698 -1.0026,1.17188 -1.0026,2.76042 0,1.61458 1.0026,2.78646 1.04167,1.22396 2.63022,1.22396 1.53646,0 2.5651,-1.26302 0.95053,-1.17188 0.95053,-2.7474 z m 8.19012,-9.16668 q 0,1.60157 -1.78386,1.60157 -1.8099,0 -1.8099,-1.60157 0,-0.71615 0.5599,-1.1849 0.52083,-0.44271 1.25,-0.44271 0.72917,0 1.25,0.45573 0.53386,0.45573 0.53386,1.17188 z m -0.0912,3.52865 q 0,1.00261 -0.13021,3.03386 -0.11718,2.01823 -0.11718,3.03386 0,0.95052 0.0391,2.85156 0.0391,1.88803 0.0391,2.82553 0,0.27344 -0.23438,0.27344 h -2.53906 q -0.27344,0 -0.27344,-0.53386 0,-0.89844 0.0391,-2.69532 0.0521,-1.80989 0.0521,-2.72135 0,-1.01563 -0.15625,-3.04688 -0.14323,-2.03125 -0.14323,-3.04688 0,-0.22136 0.27344,-0.22136 0.23437,0 0.71614,0.0651 0.49479,0.0651 0.74219,0.0651 0.2474,0 0.72917,-0.0651 0.49479,-0.0651 0.74219,-0.0651 0.22135,0 0.22135,0.2474 z m 14.0495,11.78387 q 0,0.28646 -0.26042,0.28646 -0.42968,0 -1.28906,-0.013 -0.84636,-0.013 -1.27604,-0.013 -0.23438,0 -0.23438,-0.37761 0,-0.63802 0.0391,-1.9401 0.0391,-1.30209 0.0391,-1.95313 0,-0.52084 -0.013,-1.54948 -0.013,-1.04167 -0.013,-1.5625 0,-1.48438 -0.42968,-2.09636 -0.52084,-0.72917 -1.92709,-0.72917 -0.65104,0 -1.8099,0.72917 -1.22396,0.76823 -1.22396,1.36719 v 7.81251 q 0,0.32552 -0.24739,0.32552 -0.41667,0 -1.25,-0.013 -0.83334,-0.013 -1.25001,-0.013 -0.27343,0 -0.27343,-0.29948 0,-1.02865 0.026,-3.08594 0.0391,-2.0573 0.0391,-3.09897 0,-2.77344 -0.58594,-5.11719 -0.0391,-0.11719 -0.0391,-0.16927 0,-0.13021 0.16927,-0.18229 0.0912,-0.013 1.48438,-0.23438 1.40625,-0.23437 1.47135,-0.23437 0.0781,0 0.10417,0.20833 0.0651,0.80729 0.29948,1.62761 0.67708,-0.53386 1.78386,-1.32813 1.36718,-0.83334 2.64323,-0.83334 2.44792,0 3.34636,1.41928 0.66406,1.04167 0.66406,3.3724 0,0.40364 -0.026,1.23698 -0.013,0.83333 -0.013,1.25 0,0.8724 0.026,2.60417 0.026,1.73177 0.026,2.60417 z m 6.08072,-2.83855 q 0,1.32813 -0.45573,2.35678 -0.28646,0.65104 -1.5625,2.05729 -1.36719,1.53646 -1.875,1.53646 -0.11719,0 -0.625,-0.59896 -0.50782,-0.59896 -0.50782,-0.75521 0,0.026 0.67709,-0.91145 0.6901,-0.92449 0.74218,-1.54949 0,0.0912 0,-1.36719 0,-0.50781 1.41928,-0.87239 1.13281,-0.28646 1.90104,-0.28646 0.28646,0 0.28646,0.39062 z m 21.32818,-12.50001 q 0,0.2474 -0.27344,0.2474 -1.01563,0 -3.33334,-0.11719 -2.16146,-0.10417 -3.33334,-0.0781 l -0.95052,0.013 q -0.91146,0.013 -0.96354,0.0391 -0.26042,0.10416 -0.26042,0.82031 v 3.13802 q 0,0.88542 0.37761,0.88542 1.26302,0 3.80208,-0.11719 2.55209,-0.11718 3.81511,-0.11718 0.27344,0 0.27344,0.20833 0,0.22135 -0.0391,0.66406 -0.026,0.42969 -0.026,0.65105 0,0.23437 0.026,0.71614 0.026,0.46875 0.026,0.70313 0,0.15625 -0.27344,0.15625 -0.89844,0 -2.73438,-0.0521 -1.82291,-0.0521 -2.73437,-0.0521 -1.67969,0 -1.90105,0.026 -0.58594,0.0651 -0.58594,0.48178 0,1.17187 0.0651,3.51562 0.0651,2.34376 0.0651,3.51563 0,0.39063 -0.3125,0.39063 -0.26041,0 -0.78125,-0.0521 -0.50781,-0.0651 -0.78125,-0.0651 -0.22135,0 -0.67708,0.0391 -0.45573,0.0391 -0.67709,0.0391 -0.32552,0 -0.32552,-0.28646 0,-1.44532 0.11719,-4.34897 0.13021,-2.90365 0.13021,-4.34896 0,-1.34115 -0.27344,-8.72397 v -0.16927 q -0.013,-0.27344 0.32552,-0.3125 0.10417,0 1.65365,0.0391 2.04427,0.0391 3.78907,0.013 2.35677,-0.026 6.00261,-0.26041 0.49479,-0.0391 0.55989,0.42968 -0.013,0.35157 0.0521,1.06771 0.15625,1.00261 0.15625,1.30209 z m 13.47656,9.25782 q 0,2.72136 -1.78386,4.64845 -1.82292,1.99219 -4.51823,1.99219 -2.70834,0 -4.53126,-1.97917 -1.78385,-1.91407 -1.78385,-4.63543 0,-2.72135 1.78385,-4.63542 1.83594,-1.95313 4.53126,-1.95313 2.68229,0 4.50521,1.95313 1.79688,1.90105 1.79688,4.60938 z m -2.7474,0.026 q 0,-1.58854 -0.97656,-2.70833 -1.01563,-1.1849 -2.57813,-1.1849 -1.5625,0 -2.59115,1.17188 -0.97657,1.13281 -0.97657,2.72135 0,1.56251 0.98959,2.70834 1.04167,1.21094 2.57813,1.21094 1.54948,0 2.57813,-1.21094 0.97656,-1.14583 0.97656,-2.70834 z m 17.38285,-2.61719 q 0,3.38542 -3.13803,4.53126 0,0.66406 1.30209,2.40886 1.30208,1.73177 1.30208,1.73177 0,0.19531 -1.30208,0.26042 -0.85938,0.0391 -1.28907,0.0391 -0.92448,0 -1.15885,-0.39063 -0.61198,-1.04166 -1.92709,-3.03385 -0.15625,-0.23438 -2.82552,-0.19532 l -0.50782,0.013 v 3.21615 q 0,0.40365 -0.28645,0.40365 -0.41667,0 -1.23699,-0.013 -0.80729,-0.013 -1.22396,-0.013 -0.28645,0 -0.28645,-0.50781 v -8.09897 q 0,-1.58855 -0.13021,-4.75261 -0.11719,-3.16407 -0.11719,-4.75261 0,-0.23438 0.2474,-0.26042 0.42968,-0.013 1.30208,-0.0521 0.18229,-0.013 0.76823,-0.0911 0.46875,-0.0651 0.75521,-0.0651 0.18229,0 0.18229,0.3125 0,0.70312 -0.0651,2.09635 -0.0651,1.39323 -0.0651,2.09636 v 3.35938 q 0,0.27344 0.11719,0.27344 0.3125,-0.26042 0.9375,-0.76823 2.18751,-1.69271 4.16667,-1.69271 1.92709,0 3.15105,0.98958 1.32813,1.08073 1.32813,2.95573 z m -3.13803,0.61198 q 0,-1.86198 -2.40885,-1.86198 -1.79688,0 -4.04949,2.39584 v 1.94011 q 1.05469,0.19531 2.55209,0.19531 1.51042,0 2.57813,-0.57292 1.32812,-0.71615 1.32812,-2.09636 z m 17.72137,-0.61198 q 0,3.38542 -3.13802,4.53126 0,0.66406 1.30208,2.40886 1.30209,1.73177 1.30209,1.73177 0,0.19531 -1.30209,0.26042 -0.85938,0.0391 -1.28906,0.0391 -0.92448,0 -1.15886,-0.39063 -0.61198,-1.04166 -1.92708,-3.03385 -0.15625,-0.23438 -2.82553,-0.19532 l -0.50781,0.013 v 3.21615 q 0,0.40365 -0.28646,0.40365 -0.41667,0 -1.23698,-0.013 -0.80729,-0.013 -1.22396,-0.013 -0.28646,0 -0.28646,-0.50781 v -8.09897 q 0,-1.58855 -0.13021,-4.75261 -0.11719,-3.16407 -0.11719,-4.75261 0,-0.23438 0.2474,-0.26042 0.42969,-0.013 1.30208,-0.0521 0.1823,-0.013 0.76823,-0.0911 0.46876,-0.0651 0.75521,-0.0651 0.1823,0 0.1823,0.3125 0,0.70312 -0.0651,2.09635 -0.0651,1.39323 -0.0651,2.09636 v 3.35938 q 0,0.27344 0.11719,0.27344 0.3125,-0.26042 0.9375,-0.76823 2.1875,-1.69271 4.16667,-1.69271 1.92708,0 3.15104,0.98958 1.32813,1.08073 1.32813,2.95573 z m -3.13802,0.61198 q 0,-1.86198 -2.40886,-1.86198 -1.79688,0 -4.04949,2.39584 v 1.94011 q 1.05469,0.19531 2.55209,0.19531 1.51042,0 2.57813,-0.57292 1.32813,-0.71615 1.32813,-2.09636 z m 16.71876,1.97917 q 0,2.72136 -1.78386,4.64845 -1.82292,1.99219 -4.51823,1.99219 -2.70834,0 -4.53126,-1.97917 -1.78385,-1.91407 -1.78385,-4.63543 0,-2.72135 1.78385,-4.63542 1.83594,-1.95313 4.53126,-1.95313 2.68229,0 4.50521,1.95313 1.79688,1.90105 1.79688,4.60938 z m -2.7474,0.026 q 0,-1.58854 -0.97656,-2.70833 -1.01563,-1.1849 -2.57813,-1.1849 -1.5625,0 -2.59115,1.17188 -0.97657,1.13281 -0.97657,2.72135 0,1.56251 0.98959,2.70834 1.04167,1.21094 2.57813,1.21094 1.54948,0 2.57813,-1.21094 0.97656,-1.14583 0.97656,-2.70834 z"
     id="path26"
     style="fill-rule:evenodd;clip-rule:evenodd;stroke-linejoin:round;stroke-miterlimit:2;font-size:26.6667px;line-height:1;font-family:'Berlin Sans FB';-inkscape-font-specification:'Berlin Sans FB';fill:#ffffff;stroke-width:0.582047;paint-order:markers fill stroke" /></g><path
   style="font-size:85.3333px;font-family:'Berlin Sans FB';-inkscape-font-specification:'Berlin Sans FB';fill:#ffffff;stroke-width:0.582047;paint-order:markers fill stroke"
   d="m 115.079,237.8956 q 0,1.04167 -1.04167,1.04167 -0.75,0 -2.29166,-0.125 -1.5,-0.125 -2.25,-0.125 -0.75,0 -2.29167,0.125 -1.54166,0.125 -2.29166,0.125 -1.04167,0 -1.04167,-1.375 0,-5.29166 0.33333,-15.87499 0.33334,-10.58333 0.33334,-15.875 0,-0.79166 -0.33334,-0.79166 -0.375,0 -0.58333,0.45833 -2.125,4.54167 -10.041663,24.24999 -1.291666,3.79167 -3.708332,9.45833 -0.291667,0.54167 -2.999999,0.54167 -3.916665,0 -4.333331,-0.70834 -1.416666,-3.37499 -4.041665,-9.45832 -3.458332,-8.25 -10.624996,-24.58333 -0.125,-0.29166 -0.541666,-0.58333 -0.333334,0.25 -0.333334,0.91667 0,5.37499 0.166667,16.12499 0.208333,10.74999 0.208333,16.12499 0,1.375 -1.041666,1.375 -0.708333,0 -2.166666,-0.125 -1.458332,-0.125 -2.166665,-0.125 -0.75,0 -2.25,0.125 -1.458332,0.125 -2.208332,0.125 -1.041666,0 -1.041666,-0.79167 0,-4.62499 0.416666,-13.83332 0.458333,-9.25 0.458333,-13.875 0,-4.79166 -0.458333,-14.37499 -0.416666,-9.625 -0.416666,-14.41666 0,-0.79167 0.958333,-0.91667 5.666664,-0.75 8.541663,-0.75 0.416666,0 1.166666,1.70834 10.083329,22.16665 17.333326,39.58331 1.708333,4.08333 2.041666,4.08333 0.416666,0 1.791666,-3.33333 5.666664,-13.49999 15.708331,-40.08332 0.625,-1.62499 1.375,-1.62499 1.41666,0 4.24999,0.16666 2.875,0.16667 4.29167,0.16667 1.04166,0 1.04166,1 0,4.79166 -0.33333,14.41666 -0.29167,9.58333 -0.29167,14.37499 0,4.58333 0.33334,13.75 0.375,9.16666 0.375,13.70832 z m 49.24998,-36.66665 q 0,0.16667 -0.125,0.75 -1.625,9.54167 -1.625,16.45833 0,0.41667 1.04167,18.70833 l 0.0417,0.58333 q 0.0417,1.20833 -1.125,1.20833 -1.125,0 -3.45833,0.25 -2.29166,0.29167 -3.41666,0.29167 -0.79167,0 -1.20834,-2.91667 -0.41666,-2.91666 -0.79166,-2.91666 -0.25,0 -2.25,1.625 -2.45833,2 -4.58333,3.04166 -3.29167,1.66667 -6.58333,1.66667 -8.08333,0 -13.625,-6.45833 -5.25,-6.16667 -5.25,-14.375 0,-9.24999 5.29167,-15.29166 5.54166,-6.29166 14.58333,-6.29166 6.37499,0 11.12499,4.41666 0.70833,0.83334 2.20833,2.41667 0.125,0.125 0.25,0.125 0.25,0 0.70834,-2.625 0.45833,-2.625 1.16666,-2.625 1.125,0 4.20833,0.625 3.41667,0.75 3.41667,1.33333 z m -10.625,17.41666 q 0,-5.12499 -3.04166,-8.79166 -3.20833,-3.95833 -8.20833,-3.95833 -5,0 -8.33333,3.91666 -3.20833,3.75 -3.20833,8.83333 0,5.04167 3.20833,8.75 3.33333,3.875 8.33333,3.875 4.875,0 8.16666,-3.95833 3.08333,-3.70834 3.08333,-8.66667 z m 54.12498,-18.54166 q 0,5 -0.0833,15.04166 -0.0833,10 -0.0833,15 0,9.91666 -4.25,14.62499 -4.45833,5 -14.24999,5 -9.45833,0 -15.29166,-3.58333 -0.91667,-0.58333 -0.91667,-1 0,0.45833 1.25,-6.16667 0.125,-0.70833 0.58333,-0.70833 0.20834,0 0.54167,0.20833 6.25,3.58334 12.54166,3.58334 4.125,0 6.83333,-1.83334 3.125,-2.08333 3.125,-6.04166 0,-0.875 -0.16667,-3.91667 -4.62499,5.625 -11.74999,5.625 -7.70833,0 -12.66666,-5.54166 -4.75,-5.33333 -4.75,-13.125 0,-7.91666 4.58333,-13.45832 4.875,-5.91667 12.66666,-5.91667 6.875,0 10.91666,5.29167 0.66667,0.875 0.95834,0.875 0.33333,0 0.33333,-0.75 0,-0.54167 -0.0833,-1.70834 -0.0833,-1.20833 -0.0833,-1.79166 0,-2.5 0.5,-2.5 0.41667,0 4.5,0.79166 4.08333,0.75 4.45833,0.91667 0.58334,0.20833 0.58334,1.08333 z m -10,17.16666 q 0,-4.66666 -2.54167,-7.91666 -2.79166,-3.54167 -7.33333,-3.54167 -4.49999,0 -7.29166,3.58334 -2.54166,3.25 -2.54166,7.87499 0,4.54167 2.58333,7.83333 2.79166,3.58334 7.24999,3.58334 4.41667,0 7.25,-3.58334 2.625,-3.29166 2.625,-7.83333 z m 54.37498,20.83333 q 0,0.91666 -0.83333,0.91666 -1.375,0 -4.125,-0.0417 -2.70833,-0.0417 -4.08333,-0.0417 -0.75,0 -0.75,-1.20833 0,-2.04167 0.125,-6.20833 0.125,-4.16667 0.125,-6.25 0,-1.66667 -0.0417,-4.95833 -0.0417,-3.33333 -0.0417,-5 0,-4.75 -1.37499,-6.70833 -1.66667,-2.33333 -6.16667,-2.33333 -2.08333,0 -5.79166,2.33333 -3.91667,2.45833 -3.91667,4.375 v 24.99999 q 0,1.04166 -0.79166,1.04166 -1.33334,0 -4,-0.0417 -2.66667,-0.0417 -4,-0.0417 -0.875,0 -0.875,-0.95833 0,-3.29167 0.0833,-9.875 0.125,-6.58333 0.125,-9.91666 0,-8.875 -1.875,-16.37499 -0.125,-0.375 -0.125,-0.54167 0,-0.41667 0.54167,-0.58333 0.29167,-0.0417 4.75,-0.75 4.5,-0.75 4.70833,-0.75 0.25,0 0.33333,0.66666 0.20834,2.58334 0.95834,5.20834 2.16666,-1.70834 5.70833,-4.25 4.37499,-2.66667 8.45833,-2.66667 7.83333,0 10.70833,4.54167 2.12499,3.33333 2.12499,10.79166 0,1.29166 -0.0833,3.95833 -0.0417,2.66667 -0.0417,4 0,2.79166 0.0833,8.33333 0.0833,5.54166 0.0833,8.33333 z m 43.20832,-21.54166 q 0,3.08333 -2.66667,4.125 -1.79166,0.66667 -25.79165,2.45833 0.54166,3.66667 4.04166,6.25 3.33333,2.45833 7.16667,2.45833 6.58333,0 12.08332,-4.25 0.66667,-0.54166 1.33334,-1.08333 0.33333,0 0.41666,0.0833 0.125,0.0833 1.58334,2.91667 1.45833,2.79166 1.45833,3 0,0.25 -0.66667,0.95833 -6.12499,6.5 -15.70832,6.5 -9.66667,0 -15.41666,-5.75 -5.75,-5.79166 -5.75,-15.41666 0,-8.58333 5.5,-14.95833 5.79166,-6.62499 14.20832,-6.62499 7.83333,0 13.08333,5.74999 5.125,5.58333 5.125,13.58333 z m -9.91666,-2.54167 q 0,-3.45833 -2.75,-6.12499 -2.70833,-2.66667 -6.125,-2.66667 -3.83333,0 -6.83333,3.08333 -2.95833,3.08334 -2.95833,6.91667 0,0.875 1.5,0.875 6.16666,0 14.74999,-1.25 2.41667,-0.33334 2.41667,-0.83334 z m 38.95832,17.25 q 0,0.91666 -0.16667,2.5 -0.20833,1.95833 -0.25,2.54166 -0.0417,0.75 -0.125,0.91667 -0.16667,0.29167 -0.79167,0.58333 -3.41666,1.625 -10.74999,1.625 -9.75,0 -9.75,-8.83333 0,-3.54166 0.16667,-10.62499 0.16666,-7.125 0.16666,-10.66667 0,-1.70833 -1.70833,-1.83333 -1.54166,0 -3.04166,-0.0417 -0.875,-0.20833 -0.875,-3.41666 0,-1.20833 0.16666,-2.54167 0.125,-1 1.33334,-1.20833 1.04166,0 2.04166,-0.0417 1.91667,-0.0833 1.91667,-1.70833 0,-1.66666 -0.125,-5.08333 -0.0833,-3.41667 -0.0833,-5.125 0,-3.04166 1.16666,-3.04166 0.375,0 7.83333,1.29166 0.95833,0.125 0.95833,0.91667 0,1.83333 -0.29166,5.5 -0.25,3.66666 -0.25,5.49999 0,1.20834 1.125,1.20834 h 9.99999 q 0.70834,0 0.70834,0.5 0,0.5 -0.16667,1.625 -0.125,1.08333 -0.125,1.625 0,0.625 0.0417,1.91666 0.0417,1.29167 0.0417,1.91667 0,0.79166 -1.16666,0.79166 -1.66667,0 -5.04167,-0.20833 -3.375,-0.25 -5.04166,-0.25 -0.33334,0 -0.5,2.375 -0.20834,2.95833 -0.20834,8.29166 v 6.20833 q 0,3.58334 0.66667,5 1,2.16667 4.125,2.16667 1.29167,0 3.79166,-0.54167 2.5,-0.58333 3.70834,-0.58333 0.5,0 0.5,0.75 z m 16.79164,-42.16665 q 0,5.125 -5.70833,5.125 -5.79166,0 -5.79166,-5.125 0,-2.29167 1.79166,-3.79167 1.66667,-1.41666 4,-1.41666 2.33333,0 4,1.45833 1.70833,1.45833 1.70833,3.75 z m -0.29166,11.29166 q 0,3.20833 -0.41667,9.70833 -0.375,6.45833 -0.375,9.70833 0,3.04166 0.125,9.125 0.125,6.04166 0.125,9.04166 0,0.875 -0.75,0.875 h -8.125 q -0.875,0 -0.875,-1.70833 0,-2.875 0.125,-8.625 0.16667,-5.79167 0.16667,-8.70833 0,-3.25 -0.5,-9.75 -0.45833,-6.49999 -0.45833,-9.74999 0,-0.70834 0.875,-0.70834 0.75,0 2.29166,0.20834 1.58334,0.20833 2.375,0.20833 0.79167,0 2.33333,-0.20833 1.58334,-0.20834 2.375,-0.20834 0.70834,0 0.70834,0.79167 z m 29.74998,-14.87499 q 0,0.5 -0.75,0.58333 -2.04166,0.20833 -4.04166,0.375 -2.375,0.33333 -3.625,1.66667 -2.04167,2.20833 -2.04167,11.20832 1.375,0 4.33333,0.0833 2.95834,0.0833 4.45834,0.0833 0.99999,0 0.99999,0.75 0,1.16667 0.0833,3.5 0.0833,2.29166 0.0833,3.41666 0,0.79167 -0.83333,0.79167 -1.45833,0 -4.41667,-0.125 -2.95833,-0.16667 -4.37499,-0.16667 v 12.45833 q 0,2.91667 0.20833,8.83333 0.20833,5.91667 0.20833,8.83333 0,1.125 -0.83333,1.125 h -7.625 q -1.08333,0 -1.08333,-1.29167 v -28.66665 q 0,-1.125 -2.54167,-1.08333 -2.75,0.0417 -2.91666,-0.20834 -0.125,-0.125 -0.125,-1.54166 0,-0.91667 -0.0833,-2.70833 -0.0833,-1.83334 -0.0833,-2.75 0,-0.875 5.29167,-1.16667 -0.125,-2.66666 -0.125,-4.33333 0,-7.375 2.62499,-10.79166 2.33334,-3.08333 6.83334,-4.83333 4.04166,-1.58334 8.37499,-1.58334 0.41667,0 0.58333,0.45834 0.0417,0.0833 0.70834,3.54166 0.70833,3.41667 0.70833,3.54167 z m 38.66667,24.41665 q 0,7.04167 -0.41666,8.5 -0.54167,1.875 -10.33333,16.37499 -9.75,14.45833 -11.58333,16.16666 -1.66667,1.5 -10.75,1.5 -1.08333,0 -1.41666,-0.25 -0.29167,-0.20833 -1.41667,-3 -1.08333,-2.79166 -1.08333,-3.33333 0,-0.91666 2.20833,-0.91666 4.66666,0 6.875,-1.33334 0.75,-0.45833 2.25,-2.875 1.54166,-2.41666 1.54166,-3.24999 0,-1.125 -6.04166,-8.79167 -6.375,-8.12499 -7.125,-10.29166 -0.58333,-1.70833 -0.58333,-8.16666 0,-1.58334 0.0417,-4.75 0.0417,-3.20833 0.0417,-4.83333 0,-0.91667 1,-0.91667 1.33333,0 3.91667,0.16667 2.62499,0.16666 3.95833,0.16666 0.66666,0 0.66666,0.875 0,1.16667 -0.125,3.5 -0.125,2.33333 -0.125,3.5 0,5.08333 0.33334,7.58333 0.25,1.58333 4.54166,7.875 4.29167,6.29166 5.29167,6.29166 0.70833,0 4.49999,-6.16666 3.79167,-6.20833 4.04167,-7.66667 0.33333,-2.08333 0.33333,-7.58333 0,-1.20833 -0.25,-3.54166 -0.25,-2.375 -0.25,-3.54167 0,-1.04166 0.66667,-1.04166 1.33333,0 4,-0.16667 2.70833,-0.20833 4.04166,-0.20833 1.25,0 1.25,10.12499 z"
   id="text4"
   aria-label="Magnetify"
   inkscape:label="title" /><g
   id="g16"
   inkscape:label="backup"
   style="display:none"
   sodipodi:insensitive="true"><text
     xml:space="preserve"
     style="font-size:85.3333px;fill:#544e52;stroke-width:0.582047;paint-order:markers fill stroke"
     x="52.162357"
     y="238.93727"
     id="text13"><tspan
       id="tspan13"
       x="52.162357"
       y="238.93727"
       style="font-style:normal;font-variant:normal;font-weight:normal;font-stretch:normal;font-size:85.3333px;font-family:'Berlin Sans FB';-inkscape-font-specification:'Berlin Sans FB';fill:#ffffff"
       sodipodi:role="line">Magnetify</tspan></text><text
     xml:space="preserve"
     style="font-style:normal;font-variant:normal;font-weight:normal;font-stretch:normal;font-size:26.6667px;line-height:1;font-family:'Berlin Sans FB';-inkscape-font-specification:'Berlin Sans FB';fill:#ffffff;stroke-width:0.582047;paint-order:markers fill stroke"
     x="55.725815"
     y="256.74921"
     id="text16"><tspan
       sodipodi:role="line"
       id="tspan14"
       x="55.725815"
       y="256.74921"
       style="font-size:26.6667px;line-height:1" /><tspan
       sodipodi:role="line"
       x="55.725815"
       y="283.41589"
       style="font-size:26.6667px;line-height:1"
       id="tspan15">von Bobby, Mahir, Robin, Fokko</tspan><tspan
       sodipodi:role="line"
       x="55.725815"
       y="310.08261"
       id="tspan16"
       style="font-size:26.6667px;line-height:1" /></text></g></svg>
