<?xml version="1.0" encoding="UTF-8" standalone="no"?>
<svg
   width="456"
   height="456"
   viewBox="0 0 456 456"
   version="1.1"
   xml:space="preserve"
   style="fill-rule:evenodd;clip-rule:evenodd;stroke-linejoin:round;stroke-miterlimit:2;"
   id="svg4"
   sodipodi:docname="splash.svg"
   inkscape:export-filename="splash.svg"
   inkscape:export-xdpi="96"
   inkscape:export-ydpi="96"
   inkscape:version="1.3.2 (091e20e, 2023-11-25, custom)"
   xmlns:inkscape="http://www.inkscape.org/namespaces/inkscape"
   xmlns:sodipodi="http://sodipodi.sourceforge.net/DTD/sodipodi-0.dtd"
   xmlns="http://www.w3.org/2000/svg"
   xmlns:svg="http://www.w3.org/2000/svg"><defs
   id="defs4" /><sodipodi:namedview
   id="namedview4"
   pagecolor="#ffffff"
   bordercolor="#000000"
   borderopacity="0.25"
   inkscape:showpageshadow="2"
   inkscape:pageopacity="0.0"
   inkscape:pagecheckerboard="0"
   inkscape:deskcolor="#d1d1d1"
   inkscape:export-bgcolor="#ffffff00"
   inkscape:zoom="1.260697"
   inkscape:cx="187.19803"
   inkscape:cy="209.01136"
   inkscape:window-width="1920"
   inkscape:window-height="1009"
   inkscape:window-x="1912"
   inkscape:window-y="-8"
   inkscape:window-maximized="1"
   inkscape:current-layer="svg4" />
    <rect
   style="clip-rule:evenodd;display:none;fill:#544e52;fill-rule:evenodd;stroke-width:0.582047;stroke-linejoin:round;stroke-miterlimit:2;paint-order:markers fill stroke"
   id="rect4"
   width="521.06274"
   height="486.28781"
   x="-19.07011"
   y="-12.900369"
   sodipodi:insensitive="true" />
    
    
    
<g
   id="g26"
   inkscape:label="text"
   transform="matrix(1.1631058,0,0,1.1631058,-43.11925,-46.916975)"><path
     d="m 68.290935,274.7961 q 0,1.83594 -0.117188,2.13542 -0.195313,0.58594 -2.109377,3.42449 -1.966149,2.90365 -2.343753,3.0599 -0.182292,0.0781 -1.093752,0.0781 -0.872397,0 -1.145835,-0.0781 -0.364583,-0.11719 -2.382815,-2.94272 -1.966148,-2.74739 -2.200524,-3.34635 -0.3125,-0.82032 -0.3125,-2.53907 0,-0.53385 0.02604,-1.60156 0.02604,-1.06771 0.02604,-1.60157 0,-0.28646 0.286459,-0.28646 0.429688,0 1.276043,0.0391 0.859376,0.0391 1.289064,0.0391 0.234376,0 0.234376,0.26042 0,0.41666 -0.05208,1.23698 -0.05208,0.80729 -0.05208,1.22396 0,1.19791 0.130208,2.1875 0.06511,0.49479 1.315106,2.42188 1.263023,1.92708 1.562502,1.92708 0.286459,0 1.419273,-1.88802 1.119793,-1.84896 1.197918,-2.33073 0.104167,-0.65105 0.104167,-2.23959 0,-0.42969 -0.09115,-1.28906 -0.07813,-0.85938 -0.07813,-1.28907 0,-0.19531 0.195313,-0.19531 0.429688,0 1.263022,-0.0391 0.833334,-0.0521 1.250002,-0.0521 0.403646,0 0.403646,3.6849 z"
     id="path25"
     style="font-size:26.6667px;line-height:1;font-family:'Berlin Sans FB';-inkscape-font-specification:'Berlin Sans FB';clip-rule:evenodd;fill:#ffffff;fill-rule:evenodd;stroke-width:0.582047;stroke-linejoin:round;stroke-miterlimit:2;paint-order:markers fill stroke" /><path
     d="m 82.340432,277.07475 q 0,2.72136 -1.783857,4.64845 -1.822919,1.99219 -4.518235,1.99219 -2.708336,0 -4.531255,-1.97917 -1.783857,-1.91407 -1.783857,-4.63543 0,-2.72135 1.783857,-4.63542 1.835939,-1.95313 4.531255,-1.95313 2.682295,0 4.505214,1.95313 1.796878,1.90105 1.796878,4.60938 z m -2.7474,0.026 q 0,-1.58854 -0.976563,-2.70833 -1.015627,-1.1849 -2.578129,-1.1849 -1.562502,0 -2.591149,1.17188 -0.976564,1.13281 -0.976564,2.72135 0,1.56251 0.989585,2.70834 1.041668,1.21094 2.578128,1.21094 1.549481,0 2.578129,-1.21094 0.976563,-1.14583 0.976563,-2.70834 z m 16.054707,6.0547 q 0,0.28646 -0.260417,0.28646 -0.429688,0 -1.289064,-0.013 -0.846355,-0.013 -1.276043,-0.013 -0.234376,0 -0.234376,-0.37761 0,-0.63802 0.03906,-1.9401 0.03906,-1.30209 0.03906,-1.95313 0,-0.52084 -0.01302,-1.54948 -0.01302,-1.04167 -0.01302,-1.5625 0,-1.48438 -0.429688,-2.09636 -0.520834,-0.72917 -1.927086,-0.72917 -0.651043,0 -1.809898,0.72917 -1.22396,0.76823 -1.22396,1.36719 v 7.81251 q 0,0.32552 -0.247396,0.32552 -0.416667,0 -1.250002,-0.013 -0.833334,-0.013 -1.250001,-0.013 -0.273438,0 -0.273438,-0.29948 0,-1.02865 0.02604,-3.08594 0.03906,-2.0573 0.03906,-3.09897 0,-2.77344 -0.585938,-5.11719 -0.03906,-0.11719 -0.03906,-0.16927 0,-0.13021 0.169271,-0.18229 0.09115,-0.013 1.484377,-0.23438 1.406252,-0.23437 1.471356,-0.23437 0.07813,0 0.104167,0.20833 0.0651,0.80729 0.29948,1.62761 0.677084,-0.53386 1.783856,-1.32813 1.367189,-0.83334 2.643232,-0.83334 2.44792,0 3.346359,1.41928 0.664063,1.04167 0.664063,3.3724 0,0.40364 -0.02604,1.23698 -0.01302,0.83333 -0.01302,1.25 0,0.8724 0.02604,2.60417 0.02604,1.73177 0.02604,2.60417 z m 23.229201,-5.36459 q 0,2.26563 -1.36719,3.89323 -1.44532,1.70574 -3.67188,1.70574 -0.83334,0 -2.51303,-0.0391 -1.66666,-0.0391 -2.5,-0.0391 -0.61198,0 -1.84896,0.0521 -1.22396,0.0521 -1.83594,0.0521 -0.32552,0 -0.32552,-0.29948 0,-1.4323 0.13021,-4.29688 0.14323,-2.87761 0.14323,-4.3099 0,-1.51042 -0.14323,-4.53126 -0.13021,-3.03386 -0.13021,-4.54428 0,-0.28646 0.32552,-0.28646 1.15886,0 3.48959,0.013 2.33073,0.013 3.50261,0.013 2.73438,0 4.36198,1.01562 1.97917,1.23698 1.97917,3.84115 0,0.89844 -0.52083,1.87501 -0.52084,0.96354 -1.26303,1.45833 -0.3776,0.2474 -0.3776,0.32552 0,0.0781 0.3776,0.28646 0.98959,0.54688 1.58855,1.61459 0.59896,1.05469 0.59896,2.20052 z m -3.65886,-7.47397 q 0,-1.83594 -1.64063,-2.47396 -0.98958,-0.3776 -3.24219,-0.3776 -2.1875,0 -2.1875,0.32552 0,0.42969 -0.0391,1.28906 -0.0391,0.85938 -0.0391,1.30209 0,0.29948 0.013,0.92448 0.013,0.625 0.013,0.9375 0,0.3776 2.94272,0.3776 4.17969,0 4.17969,-2.30469 z m 0.35156,7.34376 q 0,-1.58854 -1.41927,-2.14844 -0.89844,-0.36458 -2.79948,-0.36458 -3.28126,0 -3.28126,0.35156 v 2.13542 q 0,0.46875 0.026,1.43229 0.026,0.96355 0.026,1.44532 0,0.13021 0.83333,0.19531 0.83333,0.0651 2.47396,0.0651 2.0573,0 2.95573,-0.53385 1.1849,-0.70313 1.1849,-2.57813 z m 17.30471,-0.58594 q 0,2.72136 -1.78385,4.64845 -1.82292,1.99219 -4.51824,1.99219 -2.70834,0 -4.53125,-1.97917 -1.78386,-1.91407 -1.78386,-4.63543 0,-2.72135 1.78386,-4.63542 1.83594,-1.95313 4.53125,-1.95313 2.6823,0 4.50522,1.95313 1.79687,1.90105 1.79687,4.60938 z m -2.7474,0.026 q 0,-1.58854 -0.97656,-2.70833 -1.01563,-1.1849 -2.57813,-1.1849 -1.5625,0 -2.59115,1.17188 -0.97656,1.13281 -0.97656,2.72135 0,1.56251 0.98958,2.70834 1.04167,1.21094 2.57813,1.21094 1.54948,0 2.57813,-1.21094 0.97656,-1.14583 0.97656,-2.70834 z m 17.50002,0.026 q 0,2.57812 -1.60156,4.49219 -1.70573,2.03125 -4.2448,2.03125 -1.69271,0 -2.98177,-0.85937 -0.52084,-0.44271 -1.04167,-0.8724 -0.14323,0.0391 -0.19531,0.78125 -0.0391,0.74219 -0.20834,0.74219 h -2.7474 q -0.15625,0 -0.15625,-0.16927 0,0.013 0.026,-0.23438 0.20833,-2.08333 0.20833,-7.96876 0,-2.40886 -0.20833,-7.07032 -0.13021,-2.96875 -0.13021,-2.60417 0,-0.33854 0.33854,-0.3776 0.46875,-0.013 1.39323,-0.0521 0.18229,-0.013 0.74219,-0.0911 0.46875,-0.0781 0.75521,-0.0781 0.20833,0 0.20833,0.29948 0,0.44271 -0.0651,1.35417 -0.0651,0.91146 -0.0651,1.36719 0,0.67708 -0.0651,2.04427 -0.0521,1.35417 -0.0521,2.03125 0,0.4948 0.18229,0.4948 0.0911,0 0.19531,-0.14323 1.43229,-1.78386 3.78907,-1.78386 2.69531,0 4.36198,2.01823 1.5625,1.90105 1.5625,4.64845 z m -2.94271,-0.11719 q 0,-1.54948 -0.97656,-2.73438 -1.04167,-1.26302 -2.56511,-1.26302 -1.5625,0 -2.60417,1.23698 -1.0026,1.17188 -1.0026,2.76042 0,1.61458 1.0026,2.78646 1.04167,1.22396 2.63021,1.22396 1.53646,0 2.56511,-1.26302 0.95052,-1.17188 0.95052,-2.7474 z m 17.72138,0.11719 q 0,2.57812 -1.60157,4.49219 -1.70573,2.03125 -4.24479,2.03125 -1.69271,0 -2.98178,-0.85937 -0.52083,-0.44271 -1.04167,-0.8724 -0.14323,0.0391 -0.19531,0.78125 -0.0391,0.74219 -0.20833,0.74219 h -2.7474 q -0.15625,0 -0.15625,-0.16927 0,0.013 0.026,-0.23438 0.20833,-2.08333 0.20833,-7.96876 0,-2.40886 -0.20833,-7.07032 -0.13021,-2.96875 -0.13021,-2.60417 0,-0.33854 0.33854,-0.3776 0.46875,-0.013 1.39323,-0.0521 0.1823,-0.013 0.74219,-0.0911 0.46875,-0.0781 0.75521,-0.0781 0.20833,0 0.20833,0.29948 0,0.44271 -0.0651,1.35417 -0.0651,0.91146 -0.0651,1.36719 0,0.67708 -0.0651,2.04427 -0.0521,1.35417 -0.0521,2.03125 0,0.4948 0.18229,0.4948 0.0911,0 0.19531,-0.14323 1.4323,-1.78386 3.78907,-1.78386 2.69532,0 4.36199,2.01823 1.5625,1.90105 1.5625,4.64845 z m -2.94271,-0.11719 q 0,-1.54948 -0.97657,-2.73438 -1.04167,-1.26302 -2.56511,-1.26302 -1.5625,0 -2.60417,1.23698 -1.0026,1.17188 -1.0026,2.76042 0,1.61458 1.0026,2.78646 1.04167,1.22396 2.63022,1.22396 1.53646,0 2.5651,-1.26302 0.95053,-1.17188 0.95053,-2.7474 z m 15.76824,-2.65625 q 0,2.20052 -0.13021,2.65625 -0.16927,0.58594 -3.22917,5.11719 -3.04687,4.51824 -3.61979,5.05209 -0.52084,0.46875 -3.35938,0.46875 -0.33854,0 -0.44271,-0.0781 -0.0911,-0.0651 -0.44271,-0.9375 -0.33854,-0.8724 -0.33854,-1.04167 0,-0.28646 0.6901,-0.28646 1.45834,0 2.14844,-0.41667 0.23438,-0.14323 0.70313,-0.89844 0.48177,-0.7552 0.48177,-1.01562 0,-0.35156 -1.88802,-2.7474 -1.99219,-2.53907 -2.22657,-3.21615 -0.18229,-0.53386 -0.18229,-2.55209 0,-0.49479 0.013,-1.48437 0.013,-1.00261 0.013,-1.51042 0,-0.28646 0.3125,-0.28646 0.41667,0 1.22396,0.0521 0.82032,0.0521 1.23698,0.0521 0.20834,0 0.20834,0.27344 0,0.36459 -0.0391,1.09375 -0.0391,0.72917 -0.0391,1.09376 0,1.58854 0.10417,2.36979 0.0781,0.49479 1.41927,2.46094 1.34115,1.96615 1.65365,1.96615 0.22135,0 1.40625,-1.92709 1.1849,-1.9401 1.26302,-2.39583 0.10417,-0.65105 0.10417,-2.3698 0,-0.3776 -0.0781,-1.10677 -0.0781,-0.74219 -0.0781,-1.10677 0,-0.32552 0.20833,-0.32552 0.41667,0 1.25001,-0.0521 0.84635,-0.0651 1.26302,-0.0651 0.39062,0 0.39062,3.16407 z m 5.33855,5.96354 q 0,1.32813 -0.45573,2.35678 -0.28646,0.65104 -1.5625,2.05729 -1.36719,1.53646 -1.875,1.53646 -0.11719,0 -0.625,-0.59896 -0.50782,-0.59896 -0.50782,-0.75521 0,0.026 0.67709,-0.91145 0.6901,-0.92449 0.74219,-1.54949 0,0.0912 0,-1.36719 0,-0.50781 1.41927,-0.87239 1.13281,-0.28646 1.90104,-0.28646 0.28646,0 0.28646,0.39062 z m 27.12243,2.77345 q 0,0.32552 -0.32552,0.32552 -0.23437,0 -0.71614,-0.0391 -0.46876,-0.0391 -0.70313,-0.0391 -0.23438,0 -0.71615,0.0391 -0.48177,0.0391 -0.71614,0.0391 -0.32553,0 -0.32553,-0.42969 0,-1.65365 0.10417,-4.96094 0.10417,-3.3073 0.10417,-4.96095 0,-0.24739 -0.10417,-0.24739 -0.11719,0 -0.18229,0.14322 -0.66406,1.41928 -3.13803,7.57814 -0.40364,1.1849 -1.15885,2.95573 -0.0911,0.16927 -0.9375,0.16927 -1.22396,0 -1.35417,-0.22135 -0.44271,-1.05469 -1.26302,-2.95573 -1.08073,-2.57813 -3.32032,-7.68231 -0.0391,-0.0911 -0.16927,-0.18229 -0.10417,0.0781 -0.10417,0.28646 0,1.67969 0.0521,5.03907 0.0651,3.35938 0.0651,5.03907 0,0.42969 -0.32552,0.42969 -0.22136,0 -0.67709,-0.0391 -0.45572,-0.0391 -0.67708,-0.0391 -0.23437,0 -0.70313,0.0391 -0.45572,0.0391 -0.6901,0.0391 -0.32552,0 -0.32552,-0.2474 0,-1.44531 0.13021,-4.32292 0.14323,-2.89063 0.14323,-4.33594 0,-1.4974 -0.14323,-4.4922 -0.13021,-3.00781 -0.13021,-4.50521 0,-0.2474 0.29948,-0.28646 1.77083,-0.23438 2.66927,-0.23438 0.13021,0 0.36459,0.53386 3.15104,6.92709 5.41667,12.36981 0.53385,1.27604 0.63802,1.27604 0.13021,0 0.5599,-1.04167 1.77083,-4.21875 4.90886,-12.52606 0.19531,-0.50781 0.42969,-0.50781 0.44271,0 1.32812,0.0521 0.89844,0.0521 1.34115,0.0521 0.32552,0 0.32552,0.3125 0,1.4974 -0.10417,4.50521 -0.0911,2.9948 -0.0911,4.4922 0,1.43229 0.10417,4.29688 0.11718,2.86458 0.11718,4.28386 z m 15.39065,-11.45835 q 0,0.0521 -0.0391,0.23437 -0.50781,2.98178 -0.50781,5.14324 0,0.13021 0.32552,5.84636 l 0.013,0.18229 q 0.013,0.37761 -0.35156,0.37761 -0.35156,0 -1.08073,0.0781 -0.71615,0.0911 -1.06771,0.0911 -0.2474,0 -0.3776,-0.91146 -0.13021,-0.91146 -0.2474,-0.91146 -0.0781,0 -0.70313,0.50781 -0.76823,0.625 -1.43229,0.95052 -1.02865,0.52084 -2.05729,0.52084 -2.52605,0 -4.25782,-2.01823 -1.64063,-1.92709 -1.64063,-4.4922 0,-2.89063 1.65365,-4.77865 1.73177,-1.96615 4.5573,-1.96615 1.99219,0 3.47656,1.38021 0.22136,0.26042 0.69011,0.75521 0.0391,0.0391 0.0781,0.0391 0.0781,0 0.22136,-0.82031 0.14323,-0.82031 0.36458,-0.82031 0.35156,0 1.31511,0.19531 1.06771,0.23438 1.06771,0.41667 z m -3.32032,5.44271 q 0,-1.60156 -0.95052,-2.7474 -1.00261,-1.23698 -2.56511,-1.23698 -1.5625,0 -2.60417,1.22396 -1.0026,1.17188 -1.0026,2.76042 0,1.57553 1.0026,2.73438 1.04167,1.21094 2.60417,1.21094 1.52344,0 2.55209,-1.23698 0.96354,-1.15886 0.96354,-2.70834 z m 16.80992,5.88543 q 0,0.48177 -0.27343,0.48177 -0.40365,0 -1.22396,-0.013 -0.82032,-0.013 -1.22396,-0.013 -0.32553,0 -0.32553,-0.42969 0,-0.625 0.0391,-1.88802 0.0521,-1.26303 0.0521,-1.90105 0,-0.59896 -0.0521,-1.8099 -0.0391,-1.22396 -0.0391,-1.83594 0,-2.34375 -2.21354,-2.34375 -0.71615,0 -1.875,0.71615 -1.23698,0.76823 -1.23698,1.40625 v 7.73438 q 0,0.37761 -0.27344,0.37761 -0.40365,0 -1.21094,-0.013 -0.80729,-0.013 -1.21094,-0.013 -0.29948,0 -0.29948,-0.35157 v -6.28907 q 0,-1.53646 -0.16927,-6.53646 -0.026,-1.54948 -0.22135,-4.58334 -0.026,-0.15625 -0.026,-0.20834 0,-0.22135 0.15625,-0.27343 0.22136,-0.0781 1.47136,-0.0781 0.27344,0 0.82031,-0.0911 0.54688,-0.10417 0.79428,-0.10417 0.16927,0 0.16927,0.24739 0,1.22396 -0.10417,3.68491 -0.0911,2.44791 -0.0911,3.67187 0,0.29948 0.10417,0.31251 0.66406,-0.5599 1.71875,-1.35417 1.27605,-0.79428 2.69532,-0.79428 2.44792,0 3.3724,1.45834 0.66406,1.06771 0.66406,3.38542 0,0.40365 -0.026,1.25 -0.013,0.83334 -0.013,1.23698 0,0.83334 0.026,2.48699 0.026,1.65364 0.026,2.47396 z m 5.88543,-15.11721 q 0,1.60157 -1.78386,1.60157 -1.8099,0 -1.8099,-1.60157 0,-0.71615 0.5599,-1.1849 0.52083,-0.44271 1.25,-0.44271 0.72917,0 1.25,0.45573 0.53386,0.45573 0.53386,1.17188 z m -0.0911,3.52865 q 0,1.00261 -0.13021,3.03386 -0.11719,2.01823 -0.11719,3.03386 0,0.95052 0.0391,2.85156 0.0391,1.88803 0.0391,2.82553 0,0.27344 -0.23438,0.27344 h -2.53906 q -0.27344,0 -0.27344,-0.53386 0,-0.89844 0.0391,-2.69532 0.0521,-1.80989 0.0521,-2.72135 0,-1.01563 -0.15625,-3.04688 -0.14323,-2.03125 -0.14323,-3.04688 0,-0.22136 0.27343,-0.22136 0.23438,0 0.71615,0.0651 0.49479,0.0651 0.74219,0.0651 0.2474,0 0.72917,-0.0651 0.49479,-0.0651 0.74219,-0.0651 0.22135,0 0.22135,0.2474 z m 10.02606,-0.18229 q 0,1.43229 -0.19532,2.60417 -0.0391,0.29948 -0.26041,0.29948 -0.27344,0 -0.83334,-0.0521 -0.54687,-0.0651 -0.83333,-0.0651 -1.64063,0 -2.09636,0.92448 -0.27344,0.5599 -0.27344,2.33073 v 1.4323 q 0,0.72916 0.0521,2.21354 0.0651,1.48438 0.0651,2.21355 0,0.35156 -0.29948,0.35156 -0.40364,0 -1.22396,-0.013 -0.82031,-0.013 -1.22396,-0.013 -0.29948,0 -0.29948,-0.32552 0,-1.05469 0.026,-3.17709 0.0391,-2.1224 0.0391,-3.19011 0,-3.21615 -0.59896,-5.16928 -0.026,-0.10416 -0.026,-0.15625 0,-0.15625 0.16927,-0.22135 0.48177,-0.0521 1.35417,-0.15625 1.40625,-0.26042 1.30208,-0.26042 0.20833,0 0.27344,0.76823 0.0651,0.76823 0.23437,0.76823 0.026,0 0.0651,-0.026 0.53385,-0.33854 1.06771,-0.67708 0.58594,-0.35157 1.19792,-0.52084 0.50781,-0.15625 1.30208,-0.15625 1.01563,0 1.01563,0.27344 z m 5.03906,9.12761 q 0,1.32813 -0.45573,2.35678 -0.28645,0.65104 -1.5625,2.05729 -1.36719,1.53646 -1.875,1.53646 -0.11719,0 -0.625,-0.59896 -0.50781,-0.59896 -0.50781,-0.75521 0,0.026 0.67708,-0.91145 0.69011,-0.92449 0.74219,-1.54949 0,0.0912 0,-1.36719 0,-0.50781 1.41927,-0.87239 1.13282,-0.28646 1.90105,-0.28646 0.28645,0 0.28645,0.39062 z m 22.89065,2.9948 q 0,0.10417 -0.20833,0.10417 -0.2474,0 -0.75521,-0.0391 -0.50781,-0.0391 -0.75521,-0.0391 -0.27344,0 -0.82031,0.0391 -0.53386,0.0391 -0.8073,0.0391 -0.29947,0 -0.45573,-0.32552 -0.41666,-0.88542 -2.36979,-5.48178 -0.19531,-0.46875 -0.95052,-0.57292 -0.16927,-0.013 -1.1849,-0.013 -1.79688,0 -2.13542,0.0521 -0.27344,0.0391 -0.27344,0.66407 0,0.91146 0.0781,2.73437 0.0911,1.8099 0.0911,2.70834 0,0.27344 -0.26041,0.27344 -0.26042,0 -0.79427,-0.0521 -0.52084,-0.0651 -0.79428,-0.0651 -0.22135,0 -0.67708,0.0391 -0.45573,0.0391 -0.67708,0.0391 -0.32553,0 -0.32553,-0.29948 0,-1.44532 0.13021,-4.33595 0.14323,-2.90365 0.14323,-4.34896 0,-4.11459 -0.29948,-8.77605 l -0.013,-0.20834 q -0.013,-0.26041 0.54688,-0.26041 1.11979,0 3.34636,-0.0521 2.23958,-0.0651 3.34635,-0.0651 2.89063,0 4.63543,1.38021 1.92708,1.52344 1.92708,4.32292 0,1.92709 -0.52083,3.03386 -0.54688,1.17188 -2.03125,2.22657 -0.2474,0.16927 -0.2474,0.32552 0,0.18229 1.54948,3.46354 1.5625,3.28126 1.5625,3.48959 z m -3.56771,-11.80991 q 0,-2.35677 -1.35417,-3.15105 -1.0026,-0.58593 -3.60677,-0.58593 -2.10938,0 -2.14844,0.33854 -0.0911,0.70312 -0.0911,3.76302 v 2.48699 q 0.0391,0.026 0.16927,0.0521 0.23438,0.026 0.76823,0.0651 1.23698,0.0651 2.66928,0.0651 3.59375,0 3.59375,-3.03386 z m 17.1094,5.57292 q 0,2.72136 -1.78386,4.64845 -1.82292,1.99219 -4.51823,1.99219 -2.70834,0 -4.53126,-1.97917 -1.78386,-1.91407 -1.78386,-4.63543 0,-2.72135 1.78386,-4.63542 1.83594,-1.95313 4.53126,-1.95313 2.68229,0 4.50521,1.95313 1.79688,1.90105 1.79688,4.60938 z m -2.7474,0.026 q 0,-1.58854 -0.97657,-2.70833 -1.01562,-1.1849 -2.57812,-1.1849 -1.56251,0 -2.59115,1.17188 -0.97657,1.13281 -0.97657,2.72135 0,1.56251 0.98959,2.70834 1.04167,1.21094 2.57813,1.21094 1.54948,0 2.57812,-1.21094 0.97657,-1.14583 0.97657,-2.70834 z m 17.50002,0.026 q 0,2.57812 -1.60157,4.49219 -1.70573,2.03125 -4.24479,2.03125 -1.69271,0 -2.98178,-0.85937 -0.52083,-0.44271 -1.04167,-0.8724 -0.14323,0.0391 -0.19531,0.78125 -0.0391,0.74219 -0.20833,0.74219 h -2.7474 q -0.15625,0 -0.15625,-0.16927 0,0.013 0.026,-0.23438 0.20833,-2.08333 0.20833,-7.96876 0,-2.40886 -0.20833,-7.07032 -0.13021,-2.96875 -0.13021,-2.60417 0,-0.33854 0.33854,-0.3776 0.46875,-0.013 1.39323,-0.0521 0.1823,-0.013 0.74219,-0.0911 0.46875,-0.0781 0.75521,-0.0781 0.20834,0 0.20834,0.29948 0,0.44271 -0.0651,1.35417 -0.0651,0.91146 -0.0651,1.36719 0,0.67708 -0.0651,2.04427 -0.0521,1.35417 -0.0521,2.03125 0,0.4948 0.18229,0.4948 0.0911,0 0.19531,-0.14323 1.4323,-1.78386 3.78907,-1.78386 2.69532,0 4.36199,2.01823 1.5625,1.90105 1.5625,4.64845 z m -2.94271,-0.11719 q 0,-1.54948 -0.97657,-2.73438 -1.04167,-1.26302 -2.56511,-1.26302 -1.5625,0 -2.60417,1.23698 -1.0026,1.17188 -1.0026,2.76042 0,1.61458 1.0026,2.78646 1.04167,1.22396 2.63022,1.22396 1.53646,0 2.5651,-1.26302 0.95053,-1.17188 0.95053,-2.7474 z m 8.19012,-9.16668 q 0,1.60157 -1.78386,1.60157 -1.8099,0 -1.8099,-1.60157 0,-0.71615 0.5599,-1.1849 0.52083,-0.44271 1.25,-0.44271 0.72917,0 1.25,0.45573 0.53386,0.45573 0.53386,1.17188 z m -0.0912,3.52865 q 0,1.00261 -0.13021,3.03386 -0.11718,2.01823 -0.11718,3.03386 0,0.95052 0.0391,2.85156 0.0391,1.88803 0.0391,2.82553 0,0.27344 -0.23438,0.27344 h -2.53906 q -0.27344,0 -0.27344,-0.53386 0,-0.89844 0.0391,-2.69532 0.0521,-1.80989 0.0521,-2.72135 0,-1.01563 -0.15625,-3.04688 -0.14323,-2.03125 -0.14323,-3.04688 0,-0.22136 0.27344,-0.22136 0.23437,0 0.71614,0.0651 0.49479,0.0651 0.74219,0.0651 0.2474,0 0.72917,-0.0651 0.49479,-0.0651 0.74219,-0.0651 0.22135,0 0.22135,0.2474 z m 14.0495,11.78387 q 0,0.28646 -0.26042,0.28646 -0.42968,0 -1.28906,-0.013 -0.84636,-0.013 -1.27604,-0.013 -0.23438,0 -0.23438,-0.37761 0,-0.63802 0.0391,-1.9401 0.0391,-1.30209 0.0391,-1.95313 0,-0.52084 -0.013,-1.54948 -0.013,-1.04167 -0.013,-1.5625 0,-1.48438 -0.42968,-2.09636 -0.52084,-0.72917 -1.92709,-0.72917 -0.65104,0 -1.8099,0.72917 -1.22396,0.76823 -1.22396,1.36719 v 7.81251 q 0,0.32552 -0.24739,0.32552 -0.41667,0 -1.25,-0.013 -0.83334,-0.013 -1.25001,-0.013 -0.27343,0 -0.27343,-0.29948 0,-1.02865 0.026,-3.08594 0.0391,-2.0573 0.0391,-3.09897 0,-2.77344 -0.58594,-5.11719 -0.0391,-0.11719 -0.0391,-0.16927 0,-0.13021 0.16927,-0.18229 0.0912,-0.013 1.48438,-0.23438 1.40625,-0.23437 1.47135,-0.23437 0.0781,0 0.10417,0.20833 0.0651,0.80729 0.29948,1.62761 0.67708,-0.53386 1.78386,-1.32813 1.36718,-0.83334 2.64323,-0.83334 2.44792,0 3.34636,1.41928 0.66406,1.04167 0.66406,3.3724 0,0.40364 -0.026,1.23698 -0.013,0.83333 -0.013,1.25 0,0.8724 0.026,2.60417 0.026,1.73177 0.026,2.60417 z m 6.08072,-2.83855 q 0,1.32813 -0.45573,2.35678 -0.28646,0.65104 -1.5625,2.05729 -1.36719,1.53646 -1.875,1.53646 -0.11719,0 -0.625,-0.59896 -0.50782,-0.59896 -0.50782,-0.75521 0,0.026 0.67709,-0.91145 0.6901,-0.92449 0.74218,-1.54949 0,0.0912 0,-1.36719 0,-0.50781 1.41928,-0.87239 1.13281,-0.28646 1.90104,-0.28646 0.28646,0 0.28646,0.39062 z m 21.32818,-12.50001 q 0,0.2474 -0.27344,0.2474 -1.01563,0 -3.33334,-0.11719 -2.16146,-0.10417 -3.33334,-0.0781 l -0.95052,0.013 q -0.91146,0.013 -0.96354,0.0391 -0.26042,0.10416 -0.26042,0.82031 v 3.13802 q 0,0.88542 0.37761,0.88542 1.26302,0 3.80208,-0.11719 2.55209,-0.11718 3.81511,-0.11718 0.27344,0 0.27344,0.20833 0,0.22135 -0.0391,0.66406 -0.026,0.42969 -0.026,0.65105 0,0.23437 0.026,0.71614 0.026,0.46875 0.026,0.70313 0,0.15625 -0.27344,0.15625 -0.89844,0 -2.73438,-0.0521 -1.82291,-0.0521 -2.73437,-0.0521 -1.67969,0 -1.90105,0.026 -0.58594,0.0651 -0.58594,0.48178 0,1.17187 0.0651,3.51562 0.0651,2.34376 0.0651,3.51563 0,0.39063 -0.3125,0.39063 -0.26041,0 -0.78125,-0.0521 -0.50781,-0.0651 -0.78125,-0.0651 -0.22135,0 -0.67708,0.0391 -0.45573,0.0391 -0.67709,0.0391 -0.32552,0 -0.32552,-0.28646 0,-1.44532 0.11719,-4.34897 0.13021,-2.90365 0.13021,-4.34896 0,-1.34115 -0.27344,-8.72397 v -0.16927 q -0.013,-0.27344 0.32552,-0.3125 0.10417,0 1.65365,0.0391 2.04427,0.0391 3.78907,0.013 2.35677,-0.026 6.00261,-0.26041 0.49479,-0.0391 0.55989,0.42968 -0.013,0.35157 0.0521,1.06771 0.15625,1.00261 0.15625,1.30209 z m 13.47656,9.25782 q 0,2.72136 -1.78386,4.64845 -1.82292,1.99219 -4.51823,1.99219 -2.70834,0 -4.53126,-1.97917 -1.78385,-1.91407 -1.78385,-4.63543 0,-2.72135 1.78385,-4.63542 1.83594,-1.95313 4.53126,-1.95313 2.68229,0 4.50521,1.95313 1.79688,1.90105 1.79688,4.60938 z m -2.7474,0.026 q 0,-1.58854 -0.97656,-2.70833 -1.01563,-1.1849 -2.57813,-1.1849 -1.5625,0 -2.59115,1.17188 -0.97657,1.13281 -0.97657,2.72135 0,1.56251 0.98959,2.70834 1.04167,1.21094 2.57813,1.21094 1.54948,0 2.57813,-1.21094 0.97656,-1.14583 0.97656,-2.70834 z m 17.38285,-2.61719 q 0,3.38542 -3.13803,4.53126 0,0.66406 1.30209,2.40886 1.30208,1.73177 1.30208,1.73177 0,0.19531 -1.30208,0.26042 -0.85938,0.0391 -1.28907,0.0391 -0.92448,0 -1.15885,-0.39063 -0.61198,-1.04166 -1.92709,-3.03385 -0.15625,-0.23438 -2.82552,-0.19532 l -0.50782,0.013 v 3.21615 q 0,0.40365 -0.28645,0.40365 -0.41667,0 -1.23699,-0.013 -0.80729,-0.013 -1.22396,-0.013 -0.28645,0 -0.28645,-0.50781 v -8.09897 q 0,-1.58855 -0.13021,-4.75261 -0.11719,-3.16407 -0.11719,-4.75261 0,-0.23438 0.2474,-0.26042 0.42968,-0.013 1.30208,-0.0521 0.18229,-0.013 0.76823,-0.0911 0.46875,-0.0651 0.75521,-0.0651 0.18229,0 0.18229,0.3125 0,0.70312 -0.0651,2.09635 -0.0651,1.39323 -0.0651,2.09636 v 3.35938 q 0,0.27344 0.11719,0.27344 0.3125,-0.26042 0.9375,-0.76823 2.18751,-1.69271 4.16667,-1.69271 1.92709,0 3.15105,0.98958 1.32813,1.08073 1.32813,2.95573 z m -3.13803,0.61198 q 0,-1.86198 -2.40885,-1.86198 -1.79688,0 -4.04949,2.39584 v 1.94011 q 1.05469,0.19531 2.55209,0.19531 1.51042,0 2.57813,-0.57292 1.32812,-0.71615 1.32812,-2.09636 z m 17.72137,-0.61198 q 0,3.38542 -3.13802,4.53126 0,0.66406 1.30208,2.40886 1.30209,1.73177 1.30209,1.73177 0,0.19531 -1.30209,0.26042 -0.85938,0.0391 -1.28906,0.0391 -0.92448,0 -1.15886,-0.39063 -0.61198,-1.04166 -1.92708,-3.03385 -0.15625,-0.23438 -2.82553,-0.19532 l -0.50781,0.013 v 3.21615 q 0,0.40365 -0.28646,0.40365 -0.41667,0 -1.23698,-0.013 -0.80729,-0.013 -1.22396,-0.013 -0.28646,0 -0.28646,-0.50781 v -8.09897 q 0,-1.58855 -0.13021,-4.75261 -0.11719,-3.16407 -0.11719,-4.75261 0,-0.23438 0.2474,-0.26042 0.42969,-0.013 1.30208,-0.0521 0.1823,-0.013 0.76823,-0.0911 0.46876,-0.0651 0.75521,-0.0651 0.1823,0 0.1823,0.3125 0,0.70312 -0.0651,2.09635 -0.0651,1.39323 -0.0651,2.09636 v 3.35938 q 0,0.27344 0.11719,0.27344 0.3125,-0.26042 0.9375,-0.76823 2.1875,-1.69271 4.16667,-1.69271 1.92708,0 3.15104,0.98958 1.32813,1.08073 1.32813,2.95573 z m -3.13802,0.61198 q 0,-1.86198 -2.40886,-1.86198 -1.79688,0 -4.04949,2.39584 v 1.94011 q 1.05469,0.19531 2.55209,0.19531 1.51042,0 2.57813,-0.57292 1.32813,-0.71615 1.32813,-2.09636 z m 16.71876,1.97917 q 0,2.72136 -1.78386,4.64845 -1.82292,1.99219 -4.51823,1.99219 -2.70834,0 -4.53126,-1.97917 -1.78385,-1.91407 -1.78385,-4.63543 0,-2.72135 1.78385,-4.63542 1.83594,-1.95313 4.53126,-1.95313 2.68229,0 4.50521,1.95313 1.79688,1.90105 1.79688,4.60938 z m -2.7474,0.026 q 0,-1.58854 -0.97656,-2.70833 -1.01563,-1.1849 -2.57813,-1.1849 -1.5625,0 -2.59115,1.17188 -0.97657,1.13281 -0.97657,2.72135 0,1.56251 0.98959,2.70834 1.04167,1.21094 2.57813,1.21094 1.54948,0 2.57813,-1.21094 0.97656,-1.14583 0.97656,-2.70834 z"
     id="path26"
     style="font-size:26.6667px;line-height:1;font-family:'Berlin Sans FB';-inkscape-font-specification:'Berlin Sans FB';clip-rule:evenodd;fill:#ffffff;fill-rule:evenodd;stroke-width:0.582047;stroke-linejoin:round;stroke-miterlimit:2;paint-order:markers fill stroke" /></g><path
   style="font-size:85.3333px;font-family:'Berlin Sans FB';-inkscape-font-specification:'Berlin Sans FB';fill:#ffffff;stroke-width:0.676982;paint-order:markers fill stroke"
   d="m 90.729799,229.78077 q 0,1.21157 -1.211572,1.21157 -0.872329,0 -2.665443,-0.14539 -1.744659,-0.14538 -2.616988,-0.14538 -0.872329,0 -2.665455,0.14538 -1.793113,0.14539 -2.665442,0.14539 -1.211573,0 -1.211573,-1.59927 0,-6.15476 0.387698,-18.46429 0.38771,-12.30953 0.38771,-18.4643 0,-0.92079 -0.38771,-0.92079 -0.436164,0 -0.678474,0.53309 -2.4716,5.28244 -11.679516,28.2053 -1.502345,4.41011 -4.313183,11.00104 -0.339239,0.63002 -3.489316,0.63002 -4.555496,0 -5.040122,-0.82388 -1.647733,-3.92547 -4.700884,-11.00102 -4.022406,-9.59563 -12.357994,-28.59302 -0.145389,-0.33923 -0.630015,-0.67847 -0.387703,0.29078 -0.387703,1.06618 0,6.25169 0.193851,18.75507 0.242314,12.50338 0.242314,18.75507 0,1.59927 -1.211568,1.59927 -0.823866,0 -2.520062,-0.14539 -1.696194,-0.14538 -2.52006,-0.14538 -0.87233,0 -2.616988,0.14538 -1.696195,0.14539 -2.568524,0.14539 -1.211568,0 -1.211568,-0.92079 0,-5.37936 0.484627,-16.08962 0.53309,-10.75873 0.53309,-16.13809 0,-5.57321 -0.53309,-16.71963 -0.484627,-11.1949 -0.484627,-16.7681 0,-0.9208 1.114643,-1.06619 6.59093,-0.87233 9.934857,-0.87233 0.484627,0 1.356956,1.98698 11.727979,25.78216 20.160492,46.03958 1.986972,4.74934 2.374673,4.74934 0.484627,0 2.083898,-3.87701 6.590929,-15.70192 18.27045,-46.62114 0.726941,-1.89004 1.59927,-1.89004 1.647726,0 4.943188,0.19384 3.343929,0.19386 4.991666,0.19386 1.211561,0 1.211561,1.16311 0,5.5732 -0.387698,16.7681 -0.339243,11.14642 -0.339243,16.71963 0,5.3309 0.38771,15.9927 0.436164,10.6618 0.436164,15.94423 z m 57.282941,-42.64719 q 0,0.19385 -0.14539,0.87233 -1.89005,11.09797 -1.89005,19.14278 0,0.48463 1.21157,21.75976 l 0.0485,0.67848 q 0.0485,1.40541 -1.30849,1.40541 -1.30849,0 -4.0224,0.29078 -2.66545,0.33924 -3.97394,0.33924 -0.9208,0 -1.40543,-3.39239 -0.48462,-3.39239 -0.92078,-3.39239 -0.29078,0 -2.61699,1.89005 -2.8593,2.32621 -5.3309,3.53777 -3.82856,1.93851 -7.65711,1.93851 -9.40176,0 -15.84731,-7.51172 -6.106308,-7.17249 -6.106308,-16.71964 0,-10.75872 6.154768,-17.78582 6.44554,-7.31787 16.96196,-7.31787 7.41479,0 12.93954,5.13705 0.82386,0.96926 2.56852,2.81084 0.14539,0.14539 0.29078,0.14539 0.29077,0 0.82387,-3.05315 0.53309,-3.05316 1.35695,-3.05316 1.30849,0 4.89473,0.72694 3.97395,0.87233 3.97395,1.55081 z m -12.358,20.25742 q 0,-5.96091 -3.53778,-10.22564 -3.73162,-4.60395 -9.54715,-4.60395 -5.81553,0 -9.69255,4.55549 -3.73162,4.36164 -3.73162,10.2741 0,5.86399 3.73162,10.17717 3.87702,4.50704 9.69255,4.50704 5.67014,0 9.49869,-4.60396 3.58624,-4.31319 3.58624,-10.08025 z m 62.95307,-21.56592 q 0,5.81553 -0.0969,17.49505 -0.0969,11.63105 -0.0969,17.44658 0,11.53413 -4.9432,17.01041 -5.18551,5.81553 -16.57425,5.81553 -11.00103,0 -17.78581,-4.16779 -1.06619,-0.67848 -1.06619,-1.16311 0,0.53309 1.45388,-7.17249 0.14539,-0.82386 0.67848,-0.82386 0.24232,0 0.63002,0.24231 7.26941,4.1678 14.58728,4.1678 4.79781,0 7.94788,-2.13236 3.63471,-2.42314 3.63471,-7.02709 0,-1.01772 -0.19386,-4.55551 -5.37935,6.54247 -13.66648,6.54247 -8.9656,0 -14.73266,-6.44553 -5.52476,-6.20323 -5.52476,-15.26577 0,-9.20791 5.3309,-15.65344 5.67014,-6.88172 14.73267,-6.88172 7.99635,0 12.69723,6.15477 0.7754,1.01772 1.11465,1.01772 0.3877,0 0.3877,-0.87233 0,-0.63002 -0.0969,-1.98698 -0.0969,-1.40541 -0.0969,-2.08389 0,-2.90776 0.58155,-2.90776 0.48464,0 5.23398,0.92078 4.74935,0.87233 5.18551,1.06619 0.67849,0.24231 0.67849,1.26002 z m -11.63105,19.96664 q 0,-5.42781 -2.95624,-9.20791 -3.24699,-4.11933 -8.52943,-4.11933 -5.23397,0 -8.48098,4.1678 -2.95622,3.78009 -2.95622,9.15944 0,5.28245 3.00469,9.111 3.247,4.1678 8.43251,4.1678 5.13705,0 8.43251,-4.1678 3.05316,-3.82855 3.05316,-9.111 z m 63.24385,24.23137 q 0,1.06617 -0.96925,1.06617 -1.59927,0 -4.79781,-0.0485 -3.15008,-0.0485 -4.74935,-0.0485 -0.87233,0 -0.87233,-1.40541 0,-2.37468 0.14539,-7.22095 0.14539,-4.84628 0.14539,-7.26941 0,-1.93851 -0.0485,-5.76706 -0.0485,-3.87702 -0.0485,-5.81553 0,-5.52475 -1.59926,-7.8025 -1.93852,-2.71391 -7.17249,-2.71391 -2.42314,0 -6.73632,2.71391 -4.5555,2.8593 -4.5555,5.08859 v 29.07763 q 0,1.21156 -0.92078,1.21156 -1.55082,0 -4.65242,-0.0485 -3.10162,-0.0485 -4.65243,-0.0485 -1.01772,0 -1.01772,-1.11464 0,-3.82856 0.0969,-11.48567 0.14539,-7.65711 0.14539,-11.53412 0,-10.32257 -2.18082,-19.04585 -0.14539,-0.43616 -0.14539,-0.63002 0,-0.48463 0.63002,-0.67847 0.33924,-0.0485 5.52475,-0.87233 5.23398,-0.87233 5.47629,-0.87233 0.29077,0 0.38769,0.77539 0.24233,3.0047 1.11465,6.05785 2.52006,-1.98698 6.6394,-4.94319 5.08857,-3.10162 9.83793,-3.10162 9.11099,0 12.45492,5.28244 2.47159,3.87701 2.47159,12.55184 0,1.50234 -0.0969,4.60396 -0.0485,3.10162 -0.0485,4.65242 0,3.247 0.0969,9.69254 0.0969,6.44554 0.0969,9.69255 z m 50.25584,-25.05523 q 0,3.58624 -3.10161,4.79781 -2.08389,0.77541 -29.99842,2.8593 0.63001,4.26473 4.70088,7.26941 3.87701,2.8593 8.33559,2.8593 7.65711,0 14.05418,-4.9432 0.77541,-0.63001 1.55082,-1.26003 0.38769,0 0.48462,0.0969 0.14538,0.0969 1.84159,3.3924 1.69619,3.24699 1.69619,3.48931 0,0.29078 -0.77541,1.11464 -7.12401,7.56019 -18.27044,7.56019 -11.24335,0 -17.9312,-6.68786 -6.68786,-6.73631 -6.68786,-17.9312 0,-9.98333 6.39708,-17.39812 6.73632,-7.70557 16.52578,-7.70557 9.11099,0 15.2173,6.68785 5.96091,6.494 5.96091,15.79885 z m -11.53412,-2.95623 q 0,-4.0224 -3.19854,-7.12401 -3.15007,-3.10162 -7.12402,-3.10162 -4.45857,0 -7.94789,3.58624 -3.44085,3.58625 -3.44085,8.04482 0,1.01772 1.74466,1.01772 7.17248,0 17.1558,-1.45389 2.81084,-0.38771 2.81084,-0.96926 z m 45.31265,20.06358 q 0,1.06617 -0.19386,2.90776 -0.24231,2.27775 -0.29077,2.95622 -0.0485,0.87233 -0.14539,1.06618 -0.19386,0.33925 -0.9208,0.67848 -3.97394,1.89005 -12.50337,1.89005 -11.34028,0 -11.34028,-10.2741 0,-4.11933 0.19385,-12.35799 0.19384,-8.28713 0.19384,-12.40646 0,-1.98697 -1.98697,-2.13236 -1.79311,0 -3.53777,-0.0485 -1.01772,-0.24231 -1.01772,-3.97394 0,-1.40542 0.19385,-2.95623 0.14539,-1.16311 1.55081,-1.40542 1.21156,0 2.37467,-0.0485 2.22929,-0.0969 2.22929,-1.98697 0,-1.9385 -0.14539,-5.91245 -0.0969,-3.97395 -0.0969,-5.96091 0,-3.53778 1.35695,-3.53778 0.43617,0 9.111,1.50234 1.11463,0.14539 1.11463,1.06619 0,2.13235 -0.33923,6.39708 -0.29077,4.26471 -0.29077,6.39707 0,1.40542 1.30849,1.40542 h 11.63105 q 0.82387,0 0.82387,0.58156 0,0.58155 -0.19385,1.89004 -0.14539,1.26003 -0.14539,1.89005 0,0.72694 0.0485,2.22928 0.0485,1.50235 0.0485,2.22929 0,0.92078 -1.35695,0.92078 -1.93851,0 -5.86399,-0.24231 -3.92549,-0.29077 -5.86399,-0.29077 -0.38771,0 -0.58155,2.76237 -0.24232,3.44085 -0.24232,9.64408 v 7.22095 q 0,4.1678 0.77541,5.81552 1.1631,2.52007 4.79781,2.52007 1.50235,0 4.4101,-0.63002 2.90776,-0.67847 4.31319,-0.67847 0.58155,0 0.58155,0.87233 z m 19.53045,-49.04428 q 0,5.96092 -6.63939,5.96092 -6.73631,0 -6.73631,-5.96092 0,-2.66545 2.08389,-4.41011 1.93851,-1.64773 4.65242,-1.64773 2.71391,0 4.65242,1.6962 1.98697,1.69619 1.98697,4.36164 z m -0.33923,13.1334 q 0,3.73162 -0.48463,11.29181 -0.43617,7.51172 -0.43617,11.29182 0,3.53777 0.14539,10.61334 0.14539,7.02709 0.14539,10.5164 0,1.01772 -0.87233,1.01772 h -9.45023 q -1.01772,0 -1.01772,-1.98697 0,-3.34393 0.14539,-10.03179 0.19385,-6.73632 0.19385,-10.1287 0,-3.7801 -0.58155,-11.34029 -0.53309,-7.56017 -0.53309,-11.34026 0,-0.82388 1.01772,-0.82388 0.87233,0 2.66544,0.24232 1.84159,0.24231 2.76238,0.24231 0.92079,0 2.71391,-0.24231 1.84159,-0.24232 2.76237,-0.24232 0.82388,0 0.82388,0.9208 z m 34.60237,-17.30119 q 0,0.58155 -0.87233,0.67847 -2.37466,0.24231 -4.70087,0.43617 -2.76238,0.3877 -4.21626,1.93851 -2.37468,2.56852 -2.37468,13.03646 1.59927,0 5.04012,0.0969 3.44086,0.0969 5.18552,0.0969 1.16309,0 1.16309,0.87233 0,1.35696 0.0969,4.07087 0.0969,2.66544 0.0969,3.97393 0,0.9208 -0.96925,0.9208 -1.69619,0 -5.13706,-0.14539 -3.44085,-0.19385 -5.08857,-0.19385 v 14.49035 q 0,3.3924 0.24231,10.2741 0.24231,6.88171 0.24231,10.2741 0,1.30849 -0.96925,1.30849 h -8.86869 q -1.26002,0 -1.26002,-1.50235 v -33.34234 q 0,-1.3085 -2.95623,-1.26003 -3.19855,0.0485 -3.39239,-0.24232 -0.14539,-0.14539 -0.14539,-1.79312 0,-1.06618 -0.0969,-3.15007 -0.0969,-2.13237 -0.0969,-3.19854 0,-1.01772 6.15477,-1.35696 -0.14539,-3.10161 -0.14539,-5.04012 0,-8.57791 3.05314,-12.55185 2.71393,-3.58623 7.9479,-5.62167 4.70088,-1.84159 9.741,-1.84159 0.48463,0 0.67848,0.5331 0.0485,0.0969 0.82387,4.11932 0.82386,3.97395 0.82386,4.11934 z m 44.97343,28.39915 q 0,8.1902 -0.48462,9.8864 -0.63002,2.18082 -12.01876,19.04584 -11.34028,16.81657 -13.47263,18.80354 -1.93852,1.74466 -12.50339,1.74466 -1.26003,0 -1.64773,-0.29078 -0.33924,-0.24231 -1.64773,-3.48932 -1.26003,-3.24699 -1.26003,-3.87701 0,-1.06618 2.56852,-1.06618 5.42782,0 7.99635,-1.55081 0.87233,-0.53309 2.61699,-3.34393 1.79311,-2.81083 1.79311,-3.78008 0,-1.3085 -7.02709,-10.22565 -7.41479,-9.45022 -8.28712,-11.97028 -0.67848,-1.98697 -0.67848,-9.49869 0,-1.8416 0.0485,-5.52476 0.0485,-3.73162 0.0485,-5.62167 0,-1.06618 1.16311,-1.06618 1.5508,0 4.5555,0.19385 3.05314,0.19384 4.60396,0.19384 0.77539,0 0.77539,1.01772 0,1.35696 -0.14538,4.07087 -0.14539,2.71391 -0.14539,4.07087 0,5.91245 0.38771,8.82022 0.29077,1.84158 5.28243,9.15945 4.99166,7.31787 6.15477,7.31787 0.82386,0 5.23396,-7.17248 4.41012,-7.22094 4.70089,-8.91715 0.3877,-2.42313 0.3877,-8.82021 0,-1.40542 -0.29077,-4.11933 -0.29078,-2.76237 -0.29078,-4.11933 0,-1.21156 0.77541,-1.21156 1.5508,0 4.65242,-0.19386 3.15007,-0.24231 4.70088,-0.24231 1.45388,0 1.45388,11.77644 z"
   id="text4"
   aria-label="Magnetify"
   inkscape:label="title" /><g
   id="g16"
   inkscape:label="backup"
   style="display:none"
   sodipodi:insensitive="true"><text
     xml:space="preserve"
     style="font-size:85.3333px;fill:#544e52;stroke-width:0.582047;paint-order:markers fill stroke"
     x="52.162357"
     y="238.93727"
     id="text13"><tspan
       id="tspan13"
       x="52.162357"
       y="238.93727"
       style="font-style:normal;font-variant:normal;font-weight:normal;font-stretch:normal;font-size:85.3333px;font-family:'Berlin Sans FB';-inkscape-font-specification:'Berlin Sans FB';fill:#ffffff"
       sodipodi:role="line">Magnetify</tspan></text><text
     xml:space="preserve"
     style="font-style:normal;font-variant:normal;font-weight:normal;font-stretch:normal;font-size:26.6667px;line-height:1;font-family:'Berlin Sans FB';-inkscape-font-specification:'Berlin Sans FB';fill:#ffffff;stroke-width:0.582047;paint-order:markers fill stroke"
     x="55.725815"
     y="256.74921"
     id="text16"><tspan
       sodipodi:role="line"
       id="tspan14"
       x="55.725815"
       y="256.74921"
       style="font-size:26.6667px;line-height:1" /><tspan
       sodipodi:role="line"
       x="55.725815"
       y="283.41589"
       style="font-size:26.6667px;line-height:1"
       id="tspan15">von Bobby, Mahir, Robin, Fokko</tspan><tspan
       sodipodi:role="line"
       x="55.725815"
       y="310.08261"
       id="tspan16"
       style="font-size:26.6667px;line-height:1" /></text></g></svg>
